<?xml version="1.0" encoding="utf-8"?>
<!-- Generator: Adobe Illustrator 27.5.0, SVG Export Plug-In . SVG Version: 6.00 Build 0)  -->
<svg version="1.1" xmlns="http://www.w3.org/2000/svg" xmlns:xlink="http://www.w3.org/1999/xlink" x="0px" y="0px"
	 viewBox="0 0 500 500" style="enable-background:new 0 0 500 500;" xml:space="preserve">
<g id="Grass">
	<g>
		<ellipse id="Floor_6_" style="fill:#27DEBF;" cx="251.109" cy="353.201" rx="229.628" ry="116.218"/>
		<ellipse id="Floor_1_" style="opacity:0.5;" cx="251.109" cy="353.201" rx="229.628" ry="116.218"/>
	</g>
</g>
<g id="Shadow">
	<path id="Shadow_9_" style="opacity:0.1;" d="M72.18,359.878c-6.661,3.678-12.221,15.44,1.331,17.743
		c4.342,0.738,12.145,0.119,21.06-1.504c6.319-1.15,11.977-1.005,17.561,2.17c4.141,2.355,9.152,5.24,14.673,7.723
		c33.206,14.932,41.873,0.824,41.873,0.824c2.73,1.064,6.642,0.401,11.399,1.391c5.57,1.159,14.37,8.883,29.08,6.841
		c14.71-2.042,12.281-12.051-7.943-17.533c-20.224-5.481-78.059-24.353-95.526-26.744C88.221,348.398,72.18,359.878,72.18,359.878z"
		/>
	<path id="Shadow_5_" style="opacity:0.1;" d="M398.378,363.178l-22.306-12.879l-10.902,6.294
		c-4.457,2.574-11.575,2.294-15.817-0.622l-64.404-44.266c-4.242-2.915-4.065-7.406,0.392-9.98l40.811-23.562
		c4.457-2.573,11.893-2.841,16.525-0.595l78.192,37.921c4.631,2.246,4.773,6.189,0.316,8.763l-10.783,6.226l22.203,12.92
		c4.449,2.589,4.441,6.812-0.016,9.386l-18.003,10.394C410.129,365.751,402.836,365.751,398.378,363.178z"/>
</g>
<g id="Flowers_1_">
	<g id="Flowers">
		<g>
			<g>
				<path style="fill:#27DEBF;" d="M253.907,424.075c0,0-1.032-1.935-4.513-1.257c-3.481,0.678-5.087,2.977-5.087,2.977
					s2.985,3.792,7.023,2.701C255.368,427.405,253.907,424.075,253.907,424.075z"/>
				<path style="opacity:0.1;" d="M253.907,424.075c0,0-1.032-1.935-4.513-1.257c-3.481,0.678-5.087,2.977-5.087,2.977
					s2.985,3.792,7.023,2.701C255.368,427.405,253.907,424.075,253.907,424.075z"/>
				<path style="opacity:0.1;" d="M251.33,428.496c2.476-0.669,2.882-2.177,2.828-3.245c-4.103-2.051-9.852,0.544-9.852,0.544
					S247.291,429.587,251.33,428.496z"/>
			</g>
			<g>
				<path style="fill:#27DEBF;" d="M257.07,423.539c0,0,1.53-1.572-0.175-4.682c-1.705-3.11-4.384-3.941-4.384-3.941
					s-2.705,3.997-0.437,7.512C254.342,425.944,257.07,423.539,257.07,423.539z"/>
				<path style="opacity:0.1;" d="M257.07,423.539c0,0,1.53-1.572-0.175-4.682c-1.705-3.11-4.384-3.941-4.384-3.941
					s-2.705,3.997-0.437,7.512C254.342,425.944,257.07,423.539,257.07,423.539z"/>
				<path style="opacity:0.1;" d="M252.074,422.428c1.39,2.155,2.95,2.084,3.952,1.707c0.706-4.533-3.515-9.219-3.515-9.219
					S249.807,418.913,252.074,422.428z"/>
			</g>
			<path id="XMLID_2492_" style="fill:#FAFAFA;" d="M255.389,423.224c0,0,1.579-3.951,3.292-2.703
				c1.712,1.249-0.373,3.464-0.373,3.464s2.989,0.479,2.057,2.121c-0.931,1.641-3.648,0.517-3.648,0.517s0.146,3.032-1.882,2.453
				c-2.028-0.578-1.046-3.329-1.046-3.329s-2.745,0.423-2.97-1.346C250.594,422.633,253.677,421.975,255.389,423.224z"/>
		</g>
		<g>
			<g>
				<path style="fill:#27DEBF;" d="M267.612,401.488c0,0-0.404-4.538-7.611-6.066c-7.207-1.528-12.144,1.566-12.144,1.566
					s2.631,9.673,11.239,10.863C267.704,409.041,267.612,401.488,267.612,401.488z"/>
				<path style="opacity:0.1;" d="M267.612,401.488c0,0-0.404-4.538-7.611-6.066c-7.207-1.528-12.144,1.566-12.144,1.566
					s2.631,9.673,11.239,10.863C267.704,409.041,267.612,401.488,267.612,401.488z"/>
				<path style="opacity:0.1;" d="M259.096,407.851c5.276,0.73,7.277-1.824,8.041-3.911c-6.182-7.252-19.28-6.952-19.28-6.952
					S250.488,406.661,259.096,407.851z"/>
			</g>
			<g>
				<path style="fill:#27DEBF;" d="M275.719,397.708c0,0-0.97-4.452,5.451-8.063c6.421-3.611,12.057-2.133,12.057-2.133
					s0.379,10.017-7.48,13.724C277.887,404.945,275.719,397.708,275.719,397.708z"/>
				<path style="opacity:0.1;" d="M275.719,397.708c0,0-0.97-4.452,5.451-8.063c6.421-3.611,12.057-2.133,12.057-2.133
					s0.379,10.017-7.48,13.724C277.887,404.945,275.719,397.708,275.719,397.708z"/>
				<path style="opacity:0.1;" d="M285.746,401.237c-4.817,2.273-7.49,0.433-8.842-1.331c3.734-8.767,16.322-12.394,16.322-12.394
					S293.606,397.53,285.746,401.237z"/>
			</g>
			<g>
				<path style="fill:#27DEBF;" d="M270.708,407.096c0,0-4.773,4.604-1.48,9.69c3.237,5,11.272,6.671,11.272,6.671
					s3.725-7.513-0.653-13.112C276.135,405.599,270.708,407.096,270.708,407.096z"/>
				<path style="opacity:0.1;" d="M270.708,407.096c0,0-4.773,4.604-1.48,9.69c3.237,5,11.272,6.671,11.272,6.671
					s3.725-7.513-0.653-13.112C276.135,405.599,270.708,407.096,270.708,407.096z"/>
				<path style="opacity:0.1;" d="M269.228,416.786c3.237,4.999,11.271,6.671,11.271,6.671c-0.665-8.101-9.791-16.361-9.791-16.361
					S265.935,411.7,269.228,416.786z"/>
			</g>
			<g id="XMLID_1349_">
				<path id="XMLID_685_" style="fill:#FAFAFA;" d="M278.05,398.443c0,0-0.379-4.754-4.12-5.233c0,0-3.062-0.485-4.722,4.286
					c0,0-3.753-1.838-8.826,1.091c0,0-0.814,4.424,4.127,6.083c0,0-2.87,2.232-1.468,7.488c0,0,7.666,2.486,9.496-2.286
					c0,0,0.714,4.242,8.189,4.181c0,0,3.195-4.104-0.069-8.494c0,0,5.265-0.213,6.083-4.127
					C286.739,401.43,283.123,395.513,278.05,398.443z"/>
				<path id="XMLID_684_" style="fill:#FFA8A7;" d="M273.459,399.235c-3.651-0.296-5.39,2.43-5.619,3.545
					c0,0,0.028,2.774,4.797,3.142c4.769,0.367,5.467-2.428,5.467-2.428S277.917,399.597,273.459,399.235z"/>
			</g>
		</g>
		<g>
			<g>
				<path style="fill:#27DEBF;" d="M220.915,415.401c0,0-1.822-3.523-8.132-2.378c-6.31,1.145-9.268,5.266-9.268,5.266
					s5.309,6.926,12.637,5.047C223.48,421.456,220.915,415.401,220.915,415.401z"/>
				<path style="opacity:0.1;" d="M220.915,415.401c0,0-1.822-3.523-8.132-2.378c-6.31,1.145-9.268,5.266-9.268,5.266
					s5.309,6.926,12.637,5.047C223.48,421.456,220.915,415.401,220.915,415.401z"/>
				<path style="opacity:0.1;" d="M216.152,423.335c4.492-1.152,5.262-3.869,5.189-5.802c-7.372-3.804-17.825,0.756-17.825,0.756
					S208.824,425.214,216.152,423.335z"/>
			</g>
			<g>
				<path style="fill:#27DEBF;" d="M226.11,418.798c0,0-3.876,3.739-1.202,7.869c2.629,4.06,9.153,5.417,9.153,5.417
					s3.025-6.102-0.531-10.648C230.517,417.582,226.11,418.798,226.11,418.798z"/>
				<path style="opacity:0.1;" d="M226.11,418.798c0,0-3.876,3.739-1.202,7.869c2.629,4.06,9.153,5.417,9.153,5.417
					s3.025-6.102-0.531-10.648C230.517,417.582,226.11,418.798,226.11,418.798z"/>
				<path style="opacity:0.1;" d="M224.908,426.667c2.629,4.06,9.153,5.417,9.153,5.417c-0.54-6.578-7.951-13.286-7.951-13.286
					S222.234,422.537,224.908,426.667z"/>
			</g>
			<g id="XMLID_2428_">
				<path id="XMLID_683_" style="fill:#FAFAFA;" d="M228.641,410.046c0,0-1.701-3.371-4.446-3.74c0,0-2.464,1.922-2.682,4.887
					c0,0-3.213-0.881-5.994,1.524c0,0,0.772,3.357,3.855,4.375c0,0-1.247,3.144,0.247,6.265c0,0,5.291,0.349,7.115-4.073
					c0,0,1.982,2.91,7.359,1.844c0,0,1.537-3.679-2.01-6.392c0,0,3.313-1.946,2.896-5.145
					C234.98,409.591,232.349,408.419,228.641,410.046z"/>
				<path id="XMLID_682_" style="fill:#FFA8A7;" d="M225.651,412.063c-2.708,0.19-3.678,2.38-3.722,3.223
					c0,0,0.329,2.029,3.864,1.768c3.535-0.262,3.735-2.388,3.735-2.388S228.958,411.831,225.651,412.063z"/>
			</g>
		</g>
		<g>
			<g>
				<path style="fill:#27DEBF;" d="M240.533,446.261c0,0-1.01-3.22-6.467-3.186c-5.457,0.034-8.54,3.054-8.54,3.054
					s3.434,6.583,9.851,6.083C241.795,451.712,240.533,446.261,240.533,446.261z"/>
				<path style="opacity:0.1;" d="M240.533,446.261c0,0-1.01-3.22-6.467-3.186c-5.457,0.034-8.54,3.054-8.54,3.054
					s3.434,6.583,9.851,6.083C241.795,451.712,240.533,446.261,240.533,446.261z"/>
				<path style="opacity:0.1;" d="M235.378,452.212c3.933-0.307,4.977-2.471,5.2-4.102c-5.621-4.27-15.051-1.981-15.051-1.981
					S228.96,452.712,235.378,452.212z"/>
			</g>
			<g>
				<path style="fill:#27DEBF;" d="M247.144,445.016c0,0-1.471-3.846,3.777-7.945c5.248-4.098,10.485-3.542,10.485-3.542
					s1.698,8.9-4.823,13.28C250.063,451.188,247.144,445.016,247.144,445.016z"/>
				<path style="opacity:0.1;" d="M247.144,445.016c0,0-1.471-3.846,3.777-7.945c5.248-4.098,10.485-3.542,10.485-3.542
					s1.698,8.9-4.823,13.28C250.063,451.188,247.144,445.016,247.144,445.016z"/>
				<path style="opacity:0.1;" d="M256.584,446.809c-3.997,2.684-6.635,1.404-8.082,0.011c2.147-8.342,12.905-13.29,12.905-13.29
					S263.105,442.429,256.584,446.809z"/>
			</g>
			<g id="XMLID_2432_">
				<path id="XMLID_2434_" style="fill:#FAFAFA;" d="M247.33,442.64c0,0-2.188-3.077-4.957-3.031c0,0-2.148,2.27-1.918,5.235
					c0,0-3.309-0.389-5.698,2.407c0,0,1.267,3.203,4.467,3.747c0,0-0.761,3.295,1.185,6.157c0,0,5.283-0.449,6.423-5.094
					c0,0,2.396,2.579,7.552,0.718c0,0,0.967-3.868-2.947-6.017c0,0,2.984-2.421,2.091-5.521
					C253.528,441.239,250.751,440.475,247.33,442.64z"/>
				<path id="XMLID_2433_" style="fill:#FFA8A7;" d="M244.676,445.083c-2.649,0.594-3.279,2.905-3.196,3.745
					c0,0,0.63,1.957,4.086,1.167c3.456-0.789,3.334-2.921,3.334-2.921S247.911,444.358,244.676,445.083z"/>
			</g>
		</g>
		<path id="XMLID_680_" style="fill:#FAFAFA;" d="M213.989,439.078c0,0-1.062-3.016-3.041-1.963
			c-1.979,1.053-1.272,2.949,0.46,3.367c0,0-3.706,1.24-2.653,3.219c1.053,1.979,4.234-0.121,4.917-1.164c0,0,0.716,3.037,3.3,1.927
			c2.584-1.11-0.03-3.69-0.03-3.69s3.963-1.58,1.788-3.378C216.553,435.599,213.989,439.078,213.989,439.078z"/>
		<g>
			<g>
				<path style="fill:#27DEBF;" d="M195.574,433.688c0,0-1.623-1.475-4.673,0.334c-3.05,1.81-3.789,4.515-3.789,4.515
					s4.086,2.567,7.523,0.181C198.071,436.332,195.574,433.688,195.574,433.688z"/>
				<path style="opacity:0.1;" d="M195.574,433.688c0,0-1.623-1.475-4.673,0.334c-3.05,1.81-3.789,4.515-3.789,4.515
					s4.086,2.567,7.523,0.181C198.071,436.332,195.574,433.688,195.574,433.688z"/>
				<path style="opacity:0.1;" d="M194.634,438.718c2.106-1.462,1.982-3.019,1.572-4.008c-4.554-0.551-9.094,3.826-9.094,3.826
					S191.198,441.104,194.634,438.718z"/>
			</g>
			<g>
				<path style="fill:#27DEBF;" d="M198.758,431.536c0,0,0.861-2.017-1.849-4.305c-2.71-2.288-5.509-2.098-5.509-2.098
					s-1.084,4.702,2.298,7.165C197.08,434.762,198.758,431.536,198.758,431.536z"/>
				<path style="opacity:0.1;" d="M198.758,431.536c0,0,0.861-2.017-1.849-4.305c-2.71-2.288-5.509-2.098-5.509-2.098
					s-1.084,4.702,2.298,7.165C197.08,434.762,198.758,431.536,198.758,431.536z"/>
				<path style="opacity:0.1;" d="M193.698,432.299c2.073,1.51,3.503,0.881,4.301,0.169c-0.974-4.483-6.599-7.335-6.599-7.335
					S190.316,429.836,193.698,432.299z"/>
			</g>
			<path id="XMLID_2430_" style="fill:#FAFAFA;" d="M197.106,432.21c0,0,2.068-3.719,3.608-2.263c1.54,1.456-0.81,3.389-0.81,3.389
				s2.903,0.855,1.771,2.365c-1.132,1.51-3.684,0.05-3.684,0.05s-0.24,3.026-2.178,2.195c-1.938-0.831-0.615-3.435-0.615-3.435
				s-2.776,0.071-2.775-1.712S195.566,430.754,197.106,432.21z"/>
		</g>
		<g>
			<g>
				<path style="fill:#27DEBF;" d="M355.283,412.01c0,0,1.775-1.289,4.609,0.844c2.834,2.133,3.272,4.903,3.272,4.903
					s-4.343,2.104-7.497-0.644C352.512,414.365,355.283,412.01,355.283,412.01z"/>
				<path style="opacity:0.1;" d="M355.283,412.01c0,0,1.775-1.289,4.609,0.844c2.834,2.133,3.272,4.903,3.272,4.903
					s-4.343,2.104-7.497-0.644C352.512,414.365,355.283,412.01,355.283,412.01z"/>
				<path style="opacity:0.1;" d="M355.666,417.113c-1.933-1.684-1.639-3.218-1.123-4.155c4.587-0.049,8.62,4.8,8.62,4.8
					S358.82,419.861,355.666,417.113z"/>
			</g>
			<g>
				<path style="fill:#27DEBF;" d="M351.203,412.154c0,0-1.38-1.705,0.602-4.646c1.982-2.941,4.726-3.524,4.726-3.524
					s2.328,4.227-0.251,7.521C353.699,414.799,351.203,412.154,351.203,412.154z"/>
				<path style="opacity:0.1;" d="M351.203,412.154c0,0-1.38-1.705,0.602-4.646c1.982-2.941,4.726-3.524,4.726-3.524
					s2.328,4.227-0.251,7.521C353.699,414.799,351.203,412.154,351.203,412.154z"/>
				<path style="opacity:0.1;" d="M356.279,411.505c-1.581,2.019-3.128,1.805-4.091,1.339c-0.289-4.578,4.342-8.859,4.342-8.859
					S358.858,408.211,356.279,411.505z"/>
			</g>
			<path id="XMLID_677_" style="fill:#FAFAFA;" d="M352.13,411.855c0,0-1.062-3.016-3.041-1.963
				c-1.979,1.053-1.272,2.949,0.46,3.367c0,0-3.706,1.24-2.653,3.22c1.053,1.979,4.234-0.121,4.917-1.164c0,0,0.716,3.037,3.3,1.927
				c2.584-1.11-0.03-3.69-0.03-3.69s3.963-1.58,1.787-3.378C354.695,408.377,352.13,411.855,352.13,411.855z"/>
		</g>
		<g>
			<g>
				<path style="fill:#27DEBF;" d="M302.265,417.238c0,0,1.53-1.572-0.175-4.682s-4.384-3.941-4.384-3.941s-2.705,3.997-0.437,7.512
					C299.537,419.643,302.265,417.238,302.265,417.238z"/>
				<path style="opacity:0.1;" d="M302.265,417.238c0,0,1.53-1.572-0.175-4.682s-4.384-3.941-4.384-3.941s-2.705,3.997-0.437,7.512
					C299.537,419.643,302.265,417.238,302.265,417.238z"/>
				<path style="opacity:0.1;" d="M297.269,416.127c1.39,2.155,2.95,2.084,3.952,1.707c0.706-4.533-3.515-9.219-3.515-9.219
					S295.001,412.612,297.269,416.127z"/>
			</g>
			<g>
				<path style="fill:#27DEBF;" d="M306.857,417.026c0,0-0.712-3.267,4-5.917c4.713-2.65,8.849-1.566,8.849-1.566
					s0.278,7.352-5.49,10.073C308.448,422.336,306.857,417.026,306.857,417.026z"/>
				<path style="opacity:0.1;" d="M306.857,417.026c0,0-0.712-3.267,4-5.917c4.713-2.65,8.849-1.566,8.849-1.566
					s0.278,7.352-5.49,10.073C308.448,422.336,306.857,417.026,306.857,417.026z"/>
				<path style="opacity:0.1;" d="M314.216,419.615c-3.536,1.668-5.497,0.318-6.489-0.977c2.74-6.434,11.979-9.096,11.979-9.096
					S319.985,416.894,314.216,419.615z"/>
			</g>
			<g>
				<path style="fill:#27DEBF;" d="M302.792,424.739c0,0-5.111,2.284-3.957,7.268c1.135,4.898,7.033,8.532,7.033,8.532
					s5.114-4.895,3.246-10.597C307.531,425.108,302.792,424.739,302.792,424.739z"/>
				<path style="opacity:0.1;" d="M302.792,424.739c0,0-5.111,2.284-3.957,7.268c1.135,4.898,7.033,8.532,7.033,8.532
					s5.114-4.895,3.246-10.597C307.531,425.108,302.792,424.739,302.792,424.739z"/>
				<path style="opacity:0.1;" d="M298.836,432.006c1.135,4.898,7.033,8.532,7.033,8.532c1.797-6.622-3.076-15.8-3.076-15.8
					S297.681,427.023,298.836,432.006z"/>
			</g>
			<g id="XMLID_612_">
				<path id="XMLID_674_" style="fill:#FAFAFA;" d="M301.556,417.083c0,0,1.646-3.398,4.384-3.812c0,0,2.495,1.881,2.761,4.843
					c0,0,3.198-0.933,6.018,1.426c0,0-0.717,3.37-3.783,4.437c0,0,1.298,3.123-0.145,6.268c0,0-5.284,0.435-7.18-3.956
					c0,0-1.935,2.941-7.328,1.963c0,0-1.596-3.653,1.906-6.423c0,0-3.345-1.892-2.979-5.097
					C295.211,416.732,297.822,415.517,301.556,417.083z"/>
				<path id="XMLID_613_" style="fill:#FFA8A7;" d="M304.578,419.052c2.711,0.146,3.716,2.32,3.774,3.162
					c0,0-0.296,2.035-3.835,1.83c-3.539-0.204-3.773-2.327-3.773-2.327S301.268,418.874,304.578,419.052z"/>
			</g>
		</g>
		<g>
			<g>
				<path style="fill:#27DEBF;" d="M326.393,395.748c0,0-0.634-2.91,3.563-5.271c4.198-2.361,7.882-1.394,7.882-1.394
					s0.248,6.548-4.89,8.971C327.81,400.478,326.393,395.748,326.393,395.748z"/>
				<path style="opacity:0.1;" d="M326.393,395.748c0,0-0.634-2.91,3.563-5.271c4.198-2.361,7.882-1.394,7.882-1.394
					s0.248,6.548-4.89,8.971C327.81,400.478,326.393,395.748,326.393,395.748z"/>
				<path style="opacity:0.1;" d="M332.948,398.054c-3.149,1.486-4.896,0.283-5.78-0.87c2.441-5.731,10.67-8.102,10.67-8.102
					S338.086,395.631,332.948,398.054z"/>
			</g>
			<g>
				<path style="fill:#27DEBF;" d="M327.71,400.704c0,0-2.009,4.163,1.373,6.693c3.325,2.487,8.981,1.639,8.981,1.639
					s0.62-5.812-3.595-8.415C330.896,398.414,327.71,400.704,327.71,400.704z"/>
				<path style="opacity:0.1;" d="M327.71,400.704c0,0-2.009,4.163,1.373,6.693c3.325,2.487,8.981,1.639,8.981,1.639
					s0.62-5.812-3.595-8.415C330.896,398.414,327.71,400.704,327.71,400.704z"/>
				<path style="opacity:0.1;" d="M329.083,407.397c3.324,2.487,8.981,1.639,8.981,1.639c-2.392-5.136-10.354-8.332-10.354-8.332
					S325.701,404.867,329.083,407.397z"/>
			</g>
			<g id="XMLID_605_">
				<path id="XMLID_611_" style="fill:#FAFAFA;" d="M322.999,395.452c0,0,1.048-2.808,3.181-3.339c0,0,2.112,1.301,2.542,3.622
					c0,0,2.458-0.975,4.862,0.68c0,0-0.316,2.716-2.659,3.788c0,0,1.258,2.371,0.352,4.964c0,0-4.144,0.737-5.969-2.592
					c0,0-1.31,2.468-5.645,2.096c0,0-1.533-2.768,1.029-5.218c0,0-2.784-1.246-2.733-3.806
					C317.959,395.646,319.932,394.492,322.999,395.452z"/>
				<path id="XMLID_608_" style="fill:#FFA8A7;" d="M325.534,396.783c2.153-0.086,3.109,1.557,3.218,2.218
					c0,0-0.083,1.63-2.895,1.732c-2.812,0.102-3.155-1.558-3.155-1.558S322.905,396.889,325.534,396.783z"/>
			</g>
		</g>
		<g>
			<g>
				<path style="fill:#27DEBF;" d="M302.193,399.289c0,0-0.215-2.183,3.057-3.551c3.272-1.368,5.884-0.346,5.884-0.346
					s-0.379,4.811-4.344,6.145C302.825,402.87,302.193,399.289,302.193,399.289z"/>
				<path style="opacity:0.1;" d="M302.193,399.289c0,0-0.215-2.183,3.057-3.551c3.272-1.368,5.884-0.346,5.884-0.346
					s-0.379,4.811-4.344,6.145C302.825,402.87,302.193,399.289,302.193,399.289z"/>
				<path style="opacity:0.1;" d="M306.79,401.537c-2.43,0.817-3.606-0.211-4.154-1.13c2.275-3.984,8.497-5.014,8.497-5.014
					S310.755,400.203,306.79,401.537z"/>
			</g>
			<path id="XMLID_602_" style="fill:#FAFAFA;" d="M300.537,398.19c0,0,1.012-3.033,3.009-2.012c1.996,1.021,1.32,2.928-0.405,3.374
				c0,0,3.726,1.18,2.705,3.176c-1.021,1.996-4.235-0.052-4.935-1.083c0,0-0.667,3.048-3.268,1.98c-2.602-1.068-0.03-3.69-0.03-3.69
				s-3.988-1.516-1.842-3.348C297.916,394.754,300.537,398.19,300.537,398.19z"/>
		</g>
		<g>
			<g>
				<path style="fill:#27DEBF;" d="M332.219,419.157c0,0,1.775-1.289,4.609,0.844c2.834,2.133,3.272,4.903,3.272,4.903
					s-4.343,2.104-7.497-0.644S332.219,419.157,332.219,419.157z"/>
				<path style="opacity:0.1;" d="M332.219,419.157c0,0,1.775-1.289,4.609,0.844c2.834,2.133,3.272,4.903,3.272,4.903
					s-4.343,2.104-7.497-0.644S332.219,419.157,332.219,419.157z"/>
				<path style="opacity:0.1;" d="M332.602,424.26c-1.933-1.685-1.639-3.218-1.123-4.156c4.587-0.049,8.62,4.8,8.62,4.8
					S335.757,427.008,332.602,424.26z"/>
			</g>
			<g>
				<path style="fill:#27DEBF;" d="M329.162,416.625c0,0-0.091-2.191,3.253-3.372c3.344-1.18,5.895-0.012,5.895-0.012
					s-0.651,4.782-4.685,5.889C329.591,420.237,329.162,416.625,329.162,416.625z"/>
				<path style="opacity:0.1;" d="M329.162,416.625c0,0-0.091-2.191,3.253-3.372c3.344-1.18,5.895-0.012,5.895-0.012
					s-0.651,4.782-4.685,5.889C329.591,420.237,329.162,416.625,329.162,416.625z"/>
				<path style="opacity:0.1;" d="M333.625,419.13c-2.473,0.678-3.588-0.415-4.083-1.364c2.497-3.848,8.768-4.525,8.768-4.525
					S337.659,418.023,333.625,419.13z"/>
			</g>
			<path id="XMLID_601_" style="fill:#FAFAFA;" d="M330.191,417.979c0,0-1.909-3.803-3.509-2.414c-1.6,1.389,0.665,3.42,0.665,3.42
				s-2.937,0.731-1.87,2.287c1.067,1.556,3.679,0.206,3.679,0.206s0.111,3.033,2.083,2.285c1.972-0.748,0.76-3.406,0.76-3.406
				s2.771,0.189,2.846-1.592C334.919,416.984,331.791,416.59,330.191,417.979z"/>
		</g>
		<path id="XMLID_469_" style="fill:#FAFAFA;" d="M245.855,406.749c0,0-1.194-4.084-3.018-3.005
			c-1.824,1.079,0.039,3.484,0.039,3.484s-3.021,0.191-2.251,1.914c0.77,1.723,3.582,0.865,3.582,0.865s-0.436,3.004,1.638,2.622
			c2.074-0.381,1.36-3.214,1.36-3.214s2.692,0.684,3.086-1.055C250.684,406.62,247.678,405.67,245.855,406.749z"/>
		<g>
			<g>
				<path style="fill:#27DEBF;" d="M284.284,447.581c0,0-2.934-1.564-6.743,2.229c-3.809,3.794-3.889,8.044-3.889,8.044
					s6.96,2.252,11.122-2.532C288.936,450.538,284.284,447.581,284.284,447.581z"/>
				<path style="opacity:0.1;" d="M284.284,447.581c0,0-2.934-1.564-6.743,2.229c-3.809,3.794-3.889,8.044-3.889,8.044
					s6.96,2.252,11.122-2.532C288.936,450.538,284.284,447.581,284.284,447.581z"/>
				<path style="opacity:0.1;" d="M284.774,455.323c2.551-2.932,1.789-5.174,0.819-6.473c-6.897,0.884-11.94,9.006-11.94,9.006
					S280.612,460.107,284.774,455.323z"/>
			</g>
			<g>
				<path style="fill:#27DEBF;" d="M284.981,440.714c0,0,0.749-2.062-2.083-4.197s-5.615-1.792-5.615-1.792
					s-0.824,4.755,2.687,7.029C283.482,444.027,284.981,440.714,284.981,440.714z"/>
				<path style="opacity:0.1;" d="M284.981,440.714c0,0,0.749-2.062-2.083-4.197s-5.615-1.792-5.615-1.792s-0.824,4.755,2.687,7.029
					C283.482,444.027,284.981,440.714,284.981,440.714z"/>
				<path style="opacity:0.1;" d="M279.97,441.753c2.152,1.394,3.546,0.688,4.304-0.067c-1.218-4.423-6.991-6.962-6.991-6.962
					S276.458,439.479,279.97,441.753z"/>
			</g>
			<g>
				<path style="fill:#27DEBF;" d="M290.828,445.956c0,0-1.952,4.875,2.078,7.478c3.962,2.559,10.307,1.157,10.307,1.157
					s0.25-6.636-4.73-9.257C294.26,443.112,290.828,445.956,290.828,445.956z"/>
				<path style="opacity:0.1;" d="M290.828,445.956c0,0-1.952,4.875,2.078,7.478c3.962,2.559,10.307,1.157,10.307,1.157
					s0.25-6.636-4.73-9.257C294.26,443.112,290.828,445.956,290.828,445.956z"/>
				<path style="opacity:0.1;" d="M292.906,453.434c3.961,2.559,10.306,1.157,10.306,1.157c-3.111-5.634-12.384-8.636-12.384-8.636
					S288.875,450.831,292.906,453.434z"/>
			</g>
			<g id="XMLID_2443_">
				<path id="XMLID_599_" style="fill:#FAFAFA;" d="M289.581,442.224c0,0-0.263-3.307-2.866-3.64c0,0-2.13-0.337-3.285,2.981
					c0,0-2.61-1.279-6.139,0.759c0,0-0.566,3.077,2.871,4.231c0,0-1.996,1.553-1.021,5.208c0,0,5.332,1.729,6.605-1.59
					c0,0,0.497,2.951,5.697,2.908c0,0,2.222-2.854-0.048-5.909c0,0,3.663-0.148,4.231-2.871
					C295.625,444.302,293.11,440.186,289.581,442.224z"/>
				<path id="XMLID_2444_" style="fill:#FFA8A7;" d="M286.387,442.775c-2.54-0.206-3.749,1.69-3.909,2.466
					c0,0,0.019,1.93,3.337,2.185c3.318,0.256,3.803-1.689,3.803-1.689S289.488,443.026,286.387,442.775z"/>
			</g>
		</g>
		<g>
			<g>
				<path style="fill:#27DEBF;" d="M334.404,434.356c0,0-0.071-3.31-5.222-4.77c-5.151-1.46-8.882,0.542-8.882,0.542
					s1.435,7.142,7.618,8.425C334.102,439.838,334.404,434.356,334.404,434.356z"/>
				<path style="opacity:0.1;" d="M334.404,434.356c0,0-0.071-3.31-5.222-4.77c-5.151-1.46-8.882,0.542-8.882,0.542
					s1.435,7.142,7.618,8.425C334.102,439.838,334.404,434.356,334.404,434.356z"/>
				<path style="opacity:0.1;" d="M327.919,438.554c3.79,0.787,5.366-0.967,6.021-2.443c-4.128-5.56-13.64-5.982-13.64-5.982
					S321.735,437.271,327.919,438.554z"/>
			</g>
			<g>
				<path style="fill:#27DEBF;" d="M339.041,435.34c0,0-0.518-2.376,2.91-4.304c3.428-1.928,6.436-1.139,6.436-1.139
					s0.202,5.347-3.993,7.326C340.198,439.203,339.041,435.34,339.041,435.34z"/>
				<path style="opacity:0.1;" d="M339.041,435.34c0,0-0.518-2.376,2.91-4.304c3.428-1.928,6.436-1.139,6.436-1.139
					s0.202,5.347-3.993,7.326C340.198,439.203,339.041,435.34,339.041,435.34z"/>
				<path style="opacity:0.1;" d="M344.393,437.224c-2.572,1.213-3.998,0.231-4.72-0.71c1.993-4.68,8.713-6.616,8.713-6.616
					S348.589,435.245,344.393,437.224z"/>
			</g>
			<g id="XMLID_544_">
				<path id="XMLID_554_" style="fill:#FAFAFA;" d="M338.029,432.737c0,0-1.183-2.345-3.093-2.602c0,0-1.714,1.337-1.866,3.4
					c0,0-2.235-0.613-4.17,1.06c0,0,0.537,2.336,2.681,3.044c0,0-0.868,2.187,0.172,4.358c0,0,3.68,0.243,4.949-2.833
					c0,0,1.379,2.024,5.119,1.282c0,0,1.069-2.559-1.398-4.446c0,0,2.305-1.354,2.014-3.579
					C342.438,432.421,340.608,431.605,338.029,432.737z"/>
				<path id="XMLID_550_" style="fill:#FFA8A7;" d="M335.949,434.14c-1.884,0.132-2.559,1.656-2.589,2.242
					c0,0,0.229,1.412,2.688,1.23c2.459-0.182,2.598-1.661,2.598-1.661S338.249,433.979,335.949,434.14z"/>
			</g>
		</g>
		<path id="XMLID_339_" style="fill:#FAFAFA;" d="M284.756,427.675c0,0-0.738-2.098-2.115-1.366s-0.885,2.051,0.32,2.342
			c0,0-2.578,0.863-1.846,2.24c0.733,1.377,2.945-0.084,3.42-0.809c0,0,0.498,2.113,2.296,1.34c1.797-0.772-0.021-2.567-0.021-2.567
			s2.757-1.099,1.243-2.35C286.54,425.255,284.756,427.675,284.756,427.675z"/>
		<path id="XMLID_2431_" style="fill:#FAFAFA;" d="M266.901,450.972c0,0,0.993-2.789,2.216-1.966
			c1.223,0.822-0.167,2.418-0.167,2.418s2.09,0.254,1.487,1.419c-0.604,1.165-2.522,0.457-2.522,0.457s0.182,2.103-1.243,1.755
			c-1.425-0.348-0.816-2.287-0.816-2.287s-1.897,0.367-2.101-0.856C263.552,450.689,265.677,450.149,266.901,450.972z"/>
		<path id="XMLID_2495_" style="fill:#FAFAFA;" d="M315.656,444.214c0,0,0.28-3.186-1.958-3.044
			c-2.238,0.141-2.377,2.16-0.973,3.256c0,0-3.888-0.402-3.746,1.836c0.141,2.238,3.906,1.639,4.959,0.972
			c0,0-0.603,3.062,2.209,3.118c2.812,0.057,1.497-3.372,1.497-3.372s4.262,0.198,3.023-2.337
			C319.429,442.106,315.656,444.214,315.656,444.214z"/>
	</g>
</g>
<g id="Clouds_1_">
	<g id="Clouds">
		<g id="XMLID_1695_">
			<path id="XMLID_2141_" style="fill:#EBEBEB;" d="M296.148,77.043l7.701,4.446c-0.038-0.344-0.065-0.685-0.065-1.019v-2.231
				c0-3.97,2.787-5.58,6.226-3.594c1.392,0.804,2.674,2.078,3.711,3.568c0.563-4.992,4.48-6.852,9.238-4.105
				c5.144,2.97,9.314,10.193,9.314,16.133v3.338c0,1.539-0.285,2.834-0.789,3.867l6.397,3.693c1.907,1.101,3.454,3.779,3.454,5.981
				s-1.546,3.095-3.454,1.994l-41.733-24.094c-1.907-1.101-3.453-3.779-3.453-5.982C292.695,76.835,294.241,75.942,296.148,77.043z"
				/>
		</g>
		<g id="XMLID_1691_">
			<path id="XMLID_2137_" style="fill:#EBEBEB;" d="M347.056,56.587l4.248,1.634v-9.358c0-7.419,5.918-9.198,12.342-5.488l0,0
				c6.425,3.709,11.633,12.731,11.633,20.149v1.359c1.458-0.582,3.34-0.356,5.399,0.832l0,0c4.624,2.669,8.372,9.161,8.372,14.5
				v0.618l5.923,3.42c3.045,1.758,5.513,6.033,5.513,9.549c0,3.516-2.468,4.941-5.513,3.183l-47.917-27.665
				c-3.045-1.758-5.513-6.033-5.513-9.549C341.543,56.255,344.011,54.829,347.056,56.587z"/>
		</g>
	</g>
</g>
<g id="Wheelbarrow_1_">
	<g id="Wheelbarrow_2_">
		<g>
			<g>
				<g>
					<path style="fill:#27DEBF;" d="M272.209,148.907l-0.001,0.002c-0.446-0.262-1.064-0.229-1.748,0.166
						c-1.36,0.785-2.462,2.694-2.462,4.264c0,0.795,0.284,1.348,0.739,1.601l0,0.001l15.68,9.021l3.472-6.034L272.209,148.907z"/>
					<path style="fill:#27DEBF;" d="M287.486,155.665c-0.663-0.377-1.567-0.333-2.576,0.249c-2.035,1.175-3.685,4.033-3.685,6.382
						c0,1.146,0.401,1.944,1.041,2.336c0.091,0.056,1.036,0.574,1.154,0.632c0.653,0.321,1.519,0.255,2.48-0.3
						c2.035-1.175,3.685-4.033,3.685-6.382c0-1.131-0.39-1.922-1.016-2.32C288.47,156.199,287.568,155.712,287.486,155.665z"/>
					<path style="opacity:0.15;" d="M287.486,155.665c-0.663-0.377-1.567-0.333-2.576,0.249c-2.035,1.175-3.685,4.033-3.685,6.382
						c0,1.146,0.401,1.944,1.041,2.336c0.091,0.056,1.036,0.574,1.154,0.632c0.653,0.321,1.519,0.255,2.48-0.3
						c2.035-1.175,3.685-4.033,3.685-6.382c0-1.131-0.39-1.922-1.016-2.32C288.47,156.199,287.568,155.712,287.486,155.665z"/>
					<path style="fill:#27DEBF;" d="M282.246,162.838c0-2.34,1.643-5.185,3.669-6.355c2.026-1.17,3.669-0.221,3.669,2.118
						c0,2.34-1.643,5.185-3.669,6.355C283.889,166.127,282.246,165.178,282.246,162.838z"/>
				</g>
				<g>
					<path style="fill:#E0E0E0;" d="M438.379,334.354c-0.224,0-0.452-0.062-0.654-0.192L359.19,283.78
						c-0.287-0.184-0.482-0.479-0.541-0.814l-8.798-50.785c-0.338-1.949-1.188-3.781-2.458-5.298l-47.348-56.549l-14.606-8.433
						c-0.581-0.336,0.633-2.438,1.214-2.103l14.792,8.541c0.123,0.071,0.232,0.163,0.324,0.271l47.486,56.714
						c1.546,1.844,2.579,4.072,2.989,6.443l8.707,50.259l78.086,50.093c0.564,0.362,0.728,1.113,0.366,1.677
						C439.17,334.157,438.779,334.354,438.379,334.354z"/>
				</g>
			</g>
			<g>
				
					<rect x="420.655" y="279.597" transform="matrix(0.8834 -0.4686 0.4686 0.8834 -94.5503 233.4555)" style="fill:#E0E0E0;" width="2.429" height="54.271"/>
			</g>
			<g id="XMLID_139_">
				<path id="XMLID_146_" style="fill:#37474F;" d="M390.552,318.432l-4.428-8.796l10.536-6.099l0.001,0.002
					c3.351-1.928,7.814-1.709,12.714,1.12c10.406,6.008,18.842,21.506,18.844,34.615c0.001,6.865-2.315,11.708-6.014,13.906
					l0.003,0.005l-0.148,0.086c-0.007,0.004-0.014,0.009-0.022,0.013l-10.802,6.237l-4.671-9.278
					C397.724,343.471,390.895,330.125,390.552,318.432z"/>
				<path id="XMLID_145_" style="fill:#263238;" d="M390.552,318.432l-4.428-8.796l10.536-6.099l0.001,0.002
					c3.351-1.928,7.814-1.709,12.714,1.12c10.406,6.008,18.842,21.506,18.844,34.615c0.001,6.865-2.315,11.708-6.014,13.906
					l0.003,0.005l-0.148,0.086c-0.007,0.004-0.014,0.009-0.022,0.013l-10.802,6.237l-4.671-9.278
					C397.724,343.471,390.895,330.125,390.552,318.432z"/>
				<path id="XMLID_144_" style="fill:#37474F;" d="M379.568,323.842c0,11.302,6.275,24.384,14.676,31.62
					c0.017,0.008,0.025,0.025,0.034,0.034c1.332,1.139,2.716,2.142,4.133,2.96c10.408,6.014,18.851,0.253,18.842-12.854
					c0-9.902-4.816-21.179-11.656-28.685c-0.017-0.017-0.042-0.034-0.059-0.059c-2.201-2.404-4.605-4.42-7.127-5.87
					C388.003,304.983,379.568,310.735,379.568,323.842z"/>
				<path id="XMLID_143_" style="fill:#455A64;" d="M398.411,318.899c-6.622-3.824-11.991,0.161-11.991,8.9
					c0,8.74,5.369,18.924,11.991,22.747c6.623,3.824,11.992-0.161,11.992-8.9C410.402,332.908,405.034,322.724,398.411,318.899z"/>
				<path id="XMLID_142_" style="fill:#FAFAFA;" d="M392.993,332.305c0.455,4.345,3.253,8.954,6.242,10.286
					c1.316,0.583,2.446,0.439,3.262-0.274c1.051-0.899,1.587-2.736,1.332-5.177c-0.455-4.345-3.245-8.955-6.242-10.286
					c-0.81-0.365-1.557-0.447-2.193-0.287c0,0-0.009-0.008-0.008,0.001C393.666,326.994,392.662,329.143,392.993,332.305z"/>
				<path id="XMLID_141_" style="fill:#F0F0F0;" d="M394.062,331.744c0.455,4.345,3.254,8.954,6.242,10.286
					c0.809,0.356,1.548,0.448,2.193,0.287c1.051-0.899,1.587-2.736,1.332-5.177c-0.455-4.345-3.245-8.955-6.242-10.286
					c-0.81-0.365-1.557-0.447-2.193-0.287c0,0-0.009-0.008-0.008,0.001C394.344,327.474,393.807,329.311,394.062,331.744z"/>
				<path id="XMLID_140_" style="fill:#455A64;" d="M379.568,323.842c0,11.302,6.275,24.384,14.676,31.62
					c-4.976-5.415-10.13-14.482-11.952-23.127c-1.594-7.557-0.995-18.404,5.491-21.145c6.436-2.724,15.047,3.036,17.754,5.668
					c-2.201-2.404-4.605-4.42-7.127-5.87C388.003,304.983,379.568,310.735,379.568,323.842z"/>
			</g>
			<g>
				<g>
					<path style="fill:#27DEBF;" d="M212.559,182.791l-0.001,0.002c-0.446-0.262-1.064-0.229-1.748,0.166
						c-1.36,0.785-2.462,2.694-2.462,4.264c0,0.795,0.284,1.348,0.74,1.601l-0.001,0.001l15.68,9.021l3.472-6.034L212.559,182.791z"
						/>
					<path style="fill:#27DEBF;" d="M227.836,189.548c-0.663-0.378-1.567-0.333-2.576,0.249c-2.035,1.175-3.685,4.033-3.685,6.383
						c0,1.146,0.401,1.943,1.041,2.336c0.091,0.056,1.036,0.574,1.154,0.632c0.653,0.321,1.519,0.255,2.48-0.3
						c2.035-1.175,3.685-4.033,3.685-6.383c0-1.131-0.39-1.923-1.016-2.32C228.821,190.082,227.919,189.595,227.836,189.548z"/>
					<path style="opacity:0.15;" d="M227.836,189.548c-0.663-0.378-1.567-0.333-2.576,0.249c-2.035,1.175-3.685,4.033-3.685,6.383
						c0,1.146,0.401,1.943,1.041,2.336c0.091,0.056,1.036,0.574,1.154,0.632c0.653,0.321,1.519,0.255,2.48-0.3
						c2.035-1.175,3.685-4.033,3.685-6.383c0-1.131-0.39-1.923-1.016-2.32C228.821,190.082,227.919,189.595,227.836,189.548z"/>
					<path style="fill:#27DEBF;" d="M222.597,196.722c0-2.34,1.643-5.185,3.669-6.355c2.026-1.17,3.669-0.221,3.669,2.118
						c0,2.34-1.643,5.185-3.669,6.355C224.24,200.01,222.597,199.061,222.597,196.722z"/>
				</g>
				<g>
					<path style="fill:#E0E0E0;" d="M428.446,349.017c-3.862,0-7.774-0.807-10.913-2.428l-76.575-39.557
						c-2.968-1.534-6.602-0.469-8.272,2.425l-5.165,8.945c-3.682,6.375-11.57,8.737-17.589,5.263
						c-5.903-3.409-11.35-11.728-12.671-19.351l-6.72-38.794c-0.341-1.968-1.203-3.813-2.493-5.338l-45.905-54.192
						c-0.838-0.99-1.833-1.821-2.956-2.471l-12.916-7.456c-0.581-0.335,0.634-2.438,1.214-2.103l12.916,7.457
						c1.367,0.79,2.576,1.801,3.595,3.005l45.907,54.192c1.568,1.854,2.616,4.098,3.031,6.491l6.72,38.794
						c1.19,6.871,6.239,14.63,11.492,17.663c4.858,2.805,11.26,0.842,14.272-4.374l5.165-8.945c2.32-4.018,7.371-5.498,11.489-3.368
						l76.575,39.556c5.62,2.904,14.362,2.863,19.482-0.095c2.135-1.233,3.333-2.882,3.375-4.645c0.045-1.945-1.332-3.96-3.779-5.53
						c-0.564-0.362-0.728-1.113-0.366-1.677c0.363-0.565,1.112-0.729,1.677-0.366c3.177,2.038,4.961,4.819,4.894,7.63
						c-0.062,2.642-1.69,5.018-4.587,6.69C436.371,348.155,432.435,349.017,428.446,349.017z"/>
				</g>
			</g>
			<g>
				
					<rect x="397.667" y="292.87" transform="matrix(0.848 -0.53 0.53 0.848 -108.9692 260.0231)" style="fill:#E0E0E0;" width="2.427" height="54.27"/>
			</g>
			<g>
				<g>
					<path style="fill:#27DEBF;" d="M448.599,248.604l-19.506,24.762c-1.371,1.748-3.399,3.787-5.572,5.681l-86.776-60.108
						c-1.954-1.347-4.188-2.088-6.469-2.197l-0.012-0.012v-25.065L448.599,248.604z"/>
					<path style="opacity:0.25;" d="M448.599,248.604l-19.506,24.762c-1.371,1.748-3.399,3.787-5.572,5.681l-86.776-60.108
						c-1.954-1.347-4.188-2.088-6.469-2.197l-0.012-0.012v-25.065L448.599,248.604z"/>
				</g>
				<g>
					<path style="fill:#27DEBF;" d="M330.276,216.741c-2.355-0.121-4.722,0.425-6.846,1.651l-45.008,25.988
						c-1.481-3.423-2.392-7.004-2.392-10.014V222.98l54.234-31.317L330.276,216.741z"/>
					<path style="opacity:0.3;" d="M330.276,216.741c-2.355-0.121-4.722,0.425-6.846,1.651l-45.008,25.988
						c-1.481-3.423-2.392-7.004-2.392-10.014V222.98l54.234-31.317L330.276,216.741z"/>
				</g>
				<path style="fill:#27DEBF;" d="M336.751,218.936c-3.961-2.745-9.151-2.958-13.325-0.549l-45.01,25.987
					c1.616,3.74,3.909,7.29,6.462,9.685l55.85,52.398c8.424,7.904,21.031,9.36,31.035,3.584l44.965-25.961
					c2.039-1.177,4.496-3.024,6.791-5.028L336.751,218.936z"/>
				<path style="opacity:0.1;" d="M336.751,218.936c-3.961-2.745-9.151-2.958-13.325-0.549l-45.01,25.987
					c1.616,3.74,3.909,7.29,6.462,9.685l55.85,52.398c8.424,7.904,21.031,9.36,31.035,3.584l44.965-25.961
					c2.039-1.177,4.496-3.024,6.791-5.028L336.751,218.936z"/>
				<g>
					<path style="fill:#27DEBF;" d="M276.03,222.98v11.5c0.046,6.281,3.988,15.018,8.848,19.578l55.85,52.398
						c5.129,4.813,11.81,7.219,18.509,7.074l15.401-22.23L276.03,222.98z"/>
					<path style="opacity:0.35;" d="M276.03,222.98v11.5c0.046,6.281,3.988,15.018,8.848,19.578l55.85,52.398
						c5.129,4.813,11.81,7.219,18.509,7.074l15.401-22.23L276.03,222.98z"/>
				</g>
				<g>
					<path style="fill:#27DEBF;" d="M374.638,291.301l-15.401,22.23c4.303-0.094,8.613-1.231,12.526-3.49l44.967-25.962
						c3.968-2.291,9.533-7.11,12.367-10.71l19.5-24.768L374.638,291.301z"/>
					<path style="opacity:0.45;" d="M374.638,291.301l-15.401,22.23c4.303-0.094,8.613-1.231,12.526-3.49l44.967-25.962
						c3.968-2.291,9.533-7.11,12.367-10.71l19.5-24.768L374.638,291.301z"/>
				</g>
				<g>
					<path style="fill:#27DEBF;" d="M447.429,243.213l-111.713-54.575c-3-1.465-7.819-1.298-10.709,0.371l-49.036,28.311
						c-5.393,3.114-5.597,8.533-0.453,12.043l94.107,64.212c2.757,1.881,7.378,2.055,10.269,0.386l67.934-39.221
						C453.674,251.363,453.495,246.176,447.429,243.213z M443.341,251.636l-63.447,36.631c-2.903,1.676-7.489,1.487-10.245-0.422
						l-88.635-61.408c-2.755-1.909-2.636-4.815,0.267-6.491l43.724-25.244c2.903-1.676,7.704-1.857,10.725-0.403l107.397,51.671
						C446.148,247.423,446.244,249.96,443.341,251.636z"/>
					<path style="opacity:0.15;" d="M447.429,243.213l-111.713-54.575c-3-1.465-7.819-1.298-10.709,0.371l-49.036,28.311
						c-5.393,3.114-5.597,8.533-0.453,12.043l94.107,64.212c2.757,1.881,7.378,2.055,10.269,0.386l67.934-39.221
						C453.674,251.363,453.495,246.176,447.429,243.213z M443.341,251.636l-63.447,36.631c-2.903,1.676-7.489,1.487-10.245-0.422
						l-88.635-61.408c-2.755-1.909-2.636-4.815,0.267-6.491l43.724-25.244c2.903-1.676,7.704-1.857,10.725-0.403l107.397,51.671
						C446.148,247.423,446.244,249.96,443.341,251.636z"/>
				</g>
			</g>
		</g>
		<g>
			<path style="fill:#B16668;" d="M429.289,249.782c-2.835,0-5.335,1.418-6.842,3.579c-3.244-4.776-8.427-8.124-14.417-8.925
				c-0.508-4.119-4.012-7.311-8.269-7.311c-2.154,0-4.111,0.824-5.591,2.164c-3.777-5.175-9.887-8.54-16.785-8.54
				c-8.193,0-15.274,4.745-18.655,11.634c-0.325-0.756-0.816-1.452-1.51-1.996c-2.205-1.727-5.392-1.34-7.119,0.865
				c-0.759,0.97-1.087,2.128-1.054,3.27c-1.573-0.381-3.213-0.587-4.903-0.587c-6.724,0-12.698,3.198-16.495,8.153
				c-0.307-0.897-0.861-1.72-1.662-2.348c-2.205-1.727-5.392-1.34-7.12,0.865c-0.364,0.465-0.613,0.978-0.792,1.508l51.574,35.732
				c2.755,1.909,7.342,2.098,10.245,0.422l57.21-33.03C435.929,252.055,432.878,249.782,429.289,249.782z"/>
			<path style="fill:#9A4A4D;" d="M367.164,258.213c-2.021-2.789-5.793-3.584-8.731-1.946c-1.778-2.124-4.454-3.481-7.449-3.481
				c-4.192,0-7.758,2.648-9.124,6.363c1.759-2.508,4.66-4.145,7.954-4.145c2.639,0,5.026,1.048,6.775,2.751
				c0.337,0.328,0.646,0.674,0.936,1.048c0.141-0.122,0.29-0.243,0.449-0.356c0.449-0.327,0.926-0.59,1.422-0.795
				c2.817-1.151,6.158-0.281,8.02,2.293c0.477,0.646,0.814,1.366,1.029,2.106C368.428,260.711,368.007,259.373,367.164,258.213z"/>
			<path style="fill:#9A4A4D;" d="M382.156,250.212c1.535-2.118,4.399-2.722,6.63-1.478c1.35-1.613,3.383-2.644,5.656-2.644
				c3.184,0,5.891,2.011,6.928,4.832c-1.336-1.904-3.539-3.148-6.04-3.148c-2.004,0-3.816,0.796-5.145,2.089
				c-0.256,0.249-0.49,0.512-0.711,0.796c-0.107-0.092-0.22-0.185-0.341-0.27c-0.341-0.249-0.703-0.448-1.08-0.604
				c-2.139-0.874-4.676-0.213-6.09,1.741c-0.362,0.49-0.618,1.037-0.782,1.599C381.197,252.11,381.516,251.094,382.156,250.212z"/>
			<path style="fill:#9A4A4D;" d="M372.771,272.16c1.535-2.118,4.399-2.722,6.63-1.478c1.35-1.613,3.382-2.643,5.656-2.643
				c3.184,0,5.891,2.011,6.928,4.832c-1.336-1.904-3.539-3.148-6.04-3.148c-2.004,0-3.816,0.796-5.145,2.089
				c-0.256,0.249-0.49,0.512-0.711,0.796c-0.107-0.092-0.22-0.185-0.341-0.27c-0.341-0.249-0.703-0.448-1.08-0.604
				c-2.139-0.874-4.676-0.213-6.09,1.741c-0.362,0.49-0.618,1.037-0.782,1.599C371.812,274.057,372.132,273.041,372.771,272.16z"/>
		</g>
		<g>
			<g id="XMLID_131_">
				<path id="XMLID_138_" style="fill:#F0F0F0;" d="M333.49,242.854c0,0,0.974-0.658,0.727-1.464
					c-0.248-0.806-1.595-0.797-1.595-0.797s0.199-0.818-0.861-1.578c-1.084-0.777-2.309-0.701-4.811,0.748
					c-0.26,0.151-0.476,0.306-0.672,0.464c0.409-0.538,0.73-1.103,0.963-1.726c0.461-1.232,1.385-3.853-0.117-4.984
					c-1.415-1.065-2.13-0.133-2.13-0.133s-0.325-1.13-1.168-1.143c-0.843-0.013-1.251,1.271-1.251,1.271s-0.717-0.442-1.767,0.331
					c-1.074,0.791-1.374,1.92-0.544,4.689c0.238,0.795,0.54,1.62,0.846,2.386c-0.843-1.099-1.746-2.252-2.163-2.706
					c-0.89-0.969-3.058-2.784-4.598-1.705c-1.45,1.017-0.785,1.985-0.785,1.985s-1.175-0.04-1.448,0.757
					c-0.273,0.798,0.822,1.583,0.822,1.583s-0.642,0.545-0.231,1.782c0.42,1.266,1.401,1.9,4.292,1.967
					c0.775,0.018,1.591-0.009,2.367-0.057c-1.289,0.457-2.634,0.948-3.185,1.2c-1.197,0.547-3.593,2.048-3.042,3.846
					c0.519,1.693,1.645,1.36,1.645,1.36s-0.402,1.105,0.273,1.611c0.674,0.506,1.759-0.293,1.759-0.293s0.32,0.779,1.624,0.771
					c1.334-0.009,2.24-0.746,3.197-3.474c0.285-0.813,0.534-1.693,0.741-2.52c0.036,1.39,0.089,2.863,0.16,3.477
					c0.15,1.307,0.837,4.05,2.717,4.081c1.771,0.03,1.802-1.145,1.802-1.145s0.927,0.723,1.617,0.239
					c0.69-0.485,0.265-1.763,0.265-1.763s0.84-0.063,1.235-1.306c0.404-1.271,0.077-2.619-2.222-4.372
					c-0.126-0.096-0.255-0.193-0.388-0.285c0.724,0.242,1.454,0.4,1.809,0.431c1.447,0.127,4.039,0.317,4.65-1.462
					C334.598,243.246,333.49,242.854,333.49,242.854z"/>
				<g id="XMLID_135_">
					<path id="XMLID_137_" style="fill:#E0E0E0;" d="M330.699,242.882c-1.074-0.654-3.159-0.587-4.348-0.439
						c-0.864,0.107-2.664,0.358-2.986,1.387c-0.035,0.114,0.086,0.24,0.183,0.278c0.981,0.388,2.2-0.343,3.186-0.576
						c1.302-0.307,2.546-0.129,3.863-0.249C330.827,243.261,330.906,243.008,330.699,242.882z"/>
					<path id="XMLID_136_" style="fill:#E0E0E0;" d="M322.534,244.135c-0.006,0.004-0.01,0.01-0.016,0.014
						c-0.044,0.002-0.088,0.002-0.135,0.01c0.095-0.092,0.164-0.199,0.199-0.312c0.149,0.044,0.318,0.031,0.427-0.063
						c1.993-1.72,1.658-5.967,0.618-8.078c-0.034-0.069-0.304-0.205-0.3-0.05c0.036,1.453,0.028,2.869-0.235,4.32
						c-0.17,0.942-0.676,2.128-0.789,3.129c-0.094-0.117-0.195-0.229-0.306-0.341c-0.469-0.47-1.026-0.882-1.618-1.173
						c-1.482-0.727-3.636-1.588-5.324-1.139c-0.187,0.05,0.043,0.264,0.128,0.286c1.32,0.345,2.535,0.815,3.687,1.55
						c0.754,0.481,1.741,1.051,2.149,1.889c0.099,0.204,0.282,0.297,0.489,0.314c-1.038,0.558-2.238,1.61-2.569,1.918
						c-0.838,0.78-1.695,1.916-1.772,3.1c-0.012,0.191,0.433,0.36,0.5,0.152c0.166-0.516,0.787-0.977,1.139-1.408
						c0.505-0.618,1.08-1.124,1.704-1.615c0.42-0.331,0.838-0.639,1.301-0.905c0.159-0.091,0.31-0.186,0.463-0.285
						c0.011-0.007,0.012-0.008,0.02-0.014c0.043-0.022,0.09-0.046,0.139-0.072c0.311,0.551,0.877,1.104,1.117,1.399
						c0.832,1.026,1.75,2.463,2.087,3.751c0.036,0.139,0.389,0.285,0.414,0.076c0.19-1.583-0.398-2.988-1.077-4.382
						C324.635,245.511,323.641,243.365,322.534,244.135z"/>
				</g>
				<g id="XMLID_132_">
					<path id="XMLID_134_" style="fill:#27DEBF;" d="M324.589,243.911c0,1.023-0.829,1.852-1.852,1.852
						c-1.023,0-1.852-0.829-1.852-1.852c0-1.023,0.829-1.852,1.852-1.852C323.76,242.059,324.589,242.888,324.589,243.911z"/>
					<path id="XMLID_133_" style="opacity:0.05;" d="M322.23,244.941c-0.888-0.553-0.995-1.787-0.523-2.569
						c-0.495,0.332-0.822,0.897-0.822,1.538c0,1.023,0.829,1.852,1.852,1.852c0.669,0,1.25-0.358,1.576-0.89
						C323.752,245.215,322.967,245.401,322.23,244.941z"/>
				</g>
			</g>
			<g id="XMLID_123_">
				<path id="XMLID_130_" style="fill:#F0F0F0;" d="M333.639,221.987c0,0,0.991-0.39,0.93-1.151
					c-0.061-0.761-1.254-1.019-1.254-1.019s0.337-0.684-0.451-1.564c-0.806-0.9-1.903-1.073-4.4-0.284
					c-0.26,0.082-0.481,0.177-0.685,0.278c0.468-0.395,0.862-0.832,1.191-1.337c0.65-0.999,1.982-3.134,0.876-4.43
					c-1.042-1.22-1.857-0.536-1.857-0.536s-0.065-1.063-0.808-1.24c-0.743-0.177-1.356,0.878-1.356,0.878s-0.547-0.532-1.627-0.055
					c-1.105,0.488-1.592,1.427-1.404,4.039c0.054,0.75,0.159,1.538,0.279,2.276c-0.529-1.137-1.101-2.335-1.38-2.818
					c-0.596-1.032-2.156-3.063-3.73-2.411c-1.482,0.614-1.084,1.601-1.084,1.601s-1.031-0.267-1.429,0.385
					c-0.398,0.652,0.415,1.561,0.415,1.561s-0.675,0.355-0.555,1.53c0.123,1.202,0.866,1.955,3.408,2.583
					c0.682,0.169,1.409,0.305,2.104,0.415c-1.229,0.15-2.515,0.321-3.052,0.435c-1.166,0.248-3.579,1.104-3.446,2.802
					c0.126,1.599,1.187,1.526,1.187,1.526s-0.572,0.898-0.076,1.478c0.497,0.58,1.613,0.087,1.613,0.087s0.13,0.752,1.284,1.001
					c1.181,0.255,2.127-0.219,3.51-2.443c0.412-0.663,0.805-1.392,1.151-2.082c-0.241,1.236-0.484,2.548-0.543,3.105
					c-0.124,1.185-0.056,3.745,1.6,4.143c1.56,0.374,1.818-0.658,1.818-0.658s0.677,0.822,1.382,0.529
					c0.705-0.293,0.581-1.507,0.581-1.507s0.755,0.109,1.349-0.912c0.607-1.044,0.583-2.3-1.105-4.302
					c-0.092-0.109-0.188-0.221-0.287-0.328c0.593,0.356,1.207,0.639,1.514,0.736c1.254,0.397,3.509,1.074,4.399-0.378
					C334.54,222.551,333.639,221.987,333.639,221.987z"/>
				<g id="XMLID_127_">
					<path id="XMLID_129_" style="fill:#E0E0E0;" d="M331.165,221.463c-0.821-0.79-2.678-1.14-3.758-1.243
						c-0.785-0.075-2.426-0.207-2.912,0.639c-0.054,0.094,0.029,0.229,0.107,0.282c0.791,0.536,2.013,0.129,2.931,0.117
						c1.212-0.016,2.276,0.387,3.464,0.539C331.204,221.823,331.323,221.615,331.165,221.463z"/>
					<path id="XMLID_128_" style="fill:#E0E0E0;" d="M323.7,220.965c-0.007,0.003-0.011,0.007-0.017,0.009
						c-0.04-0.007-0.078-0.016-0.122-0.018c0.102-0.063,0.184-0.144,0.237-0.236c0.123,0.068,0.275,0.09,0.39,0.028
						c2.1-1.129,2.639-4.949,2.135-7.021c-0.017-0.068-0.229-0.241-0.255-0.104c-0.254,1.292-0.54,2.542-1.057,3.773
						c-0.336,0.8-1.016,1.748-1.313,2.612c-0.06-0.122-0.127-0.241-0.204-0.362c-0.322-0.508-0.733-0.982-1.2-1.355
						c-1.168-0.934-2.903-2.119-4.483-2.053c-0.175,0.007-0.013,0.242,0.057,0.279c1.099,0.564,2.082,1.219,2.956,2.095
						c0.572,0.574,1.332,1.272,1.528,2.093c0.048,0.2,0.191,0.318,0.371,0.374c-1.027,0.289-2.296,0.983-2.649,1.19
						c-0.894,0.525-1.876,1.361-2.176,2.392c-0.048,0.166,0.312,0.403,0.412,0.233c0.248-0.423,0.888-0.709,1.283-1.021
						c0.568-0.447,1.176-0.782,1.825-1.093c0.437-0.21,0.867-0.4,1.328-0.544c0.158-0.049,0.31-0.104,0.465-0.161
						c0.011-0.004,0.012-0.005,0.02-0.008c0.042-0.011,0.089-0.023,0.137-0.036c0.167,0.548,0.558,1.148,0.712,1.457
						c0.534,1.071,1.063,2.522,1.108,3.726c0.005,0.13,0.288,0.328,0.351,0.148c0.479-1.362,0.236-2.72-0.091-4.086
						C325.287,222.595,324.83,220.502,323.7,220.965z"/>
				</g>
				<g id="XMLID_124_">
					<path id="XMLID_126_" style="fill:#27DEBF;" d="M325.561,221.171c-0.201,0.904-1.097,1.474-2.001,1.273
						c-0.904-0.201-1.474-1.097-1.273-2.001c0.201-0.904,1.097-1.474,2.001-1.273C325.192,219.371,325.762,220.267,325.561,221.171z
						"/>
					<path id="XMLID_125_" style="opacity:0.05;" d="M323.273,221.618c-0.676-0.664-0.528-1.775,0.043-2.374
						c-0.503,0.197-0.903,0.632-1.029,1.199c-0.201,0.904,0.369,1.8,1.273,2.001c0.592,0.132,1.176-0.071,1.568-0.477
						C324.564,222.16,323.834,222.169,323.273,221.618z"/>
				</g>
			</g>
			<g id="XMLID_115_">
				<path id="XMLID_122_" style="fill:#F0F0F0;" d="M351.961,226.882c0,0,0.584-1.204-0.12-1.856
					c-0.704-0.652-2.025,0.125-2.025,0.125s-0.27-0.919-1.747-1.063c-1.511-0.147-2.673,0.627-4.31,3.48
					c-0.17,0.297-0.294,0.573-0.397,0.84c0.096-0.763,0.09-1.502-0.036-2.249c-0.249-1.476-0.834-4.584-2.958-4.84
					c-2.001-0.241-2.173,1.084-2.173,1.084s-0.964-0.928-1.802-0.46c-0.838,0.468-0.507,1.965-0.507,1.965s-0.958-0.027-1.551,1.333
					c-0.606,1.391-0.257,2.674,2.139,4.928c0.688,0.647,1.456,1.286,2.194,1.867c-1.457-0.601-3.004-1.222-3.673-1.431
					c-1.429-0.447-4.599-0.997-5.499,0.944c-0.848,1.828,0.359,2.402,0.359,2.402s-1.18,0.63-0.994,1.572
					c0.186,0.941,1.712,1.09,1.712,1.09s-0.322,0.903,0.789,1.887c1.136,1.007,2.463,1.071,5.347-0.511
					c0.774-0.424,1.561-0.917,2.297-1.406c-1.008,1.185-2.052,2.436-2.452,2.999c-0.867,1.221-2.37,4.066-0.801,5.521
					c1.477,1.371,2.395,0.4,2.395,0.4s0.235,1.317,1.187,1.431c0.953,0.114,1.565-1.291,1.565-1.291s0.759,0.585,2.038-0.167
					c1.309-0.769,1.78-2.012,1.166-5.244c-0.183-0.964-0.44-1.971-0.707-2.904c0.828,1.347,1.72,2.768,2.14,3.332
					c0.893,1.201,3.134,3.51,5.004,2.469c1.76-0.981,1.121-2.154,1.121-2.154s1.325,0.184,1.728-0.687
					c0.403-0.871-0.744-1.887-0.744-1.887s0.791-0.541,0.471-1.99c-0.327-1.482-1.418-2.622-4.681-3.038
					c-0.178-0.023-0.361-0.044-0.545-0.059c0.851-0.175,1.659-0.436,2.026-0.607c1.497-0.7,4.158-1.992,3.745-4.092
					C353.275,226.636,351.961,226.882,351.961,226.882z"/>
				<g id="XMLID_119_">
					<path id="XMLID_121_" style="fill:#E0E0E0;" d="M349.228,228.501c-1.431-0.032-3.445,1.224-4.531,2.047
						c-0.79,0.598-2.419,1.872-2.149,3.068c0.03,0.133,0.222,0.187,0.339,0.169c1.187-0.177,1.971-1.593,2.809-2.384
						c1.107-1.045,2.433-1.579,3.661-2.449C349.57,228.801,349.504,228.507,349.228,228.501z"/>
					<path id="XMLID_120_" style="fill:#E0E0E0;" d="M341.904,234.391c-0.004,0.008-0.004,0.015-0.008,0.023
						c-0.043,0.027-0.085,0.052-0.128,0.087c0.041-0.145,0.048-0.289,0.018-0.42c0.172-0.041,0.331-0.151,0.385-0.306
						c0.981-2.83-1.771-6.82-3.999-8.306c-0.073-0.049-0.417-0.029-0.324,0.122c0.865,1.41,1.664,2.809,2.233,4.387
						c0.37,1.025,0.548,2.48,1.008,3.531c-0.159-0.062-0.323-0.115-0.496-0.161c-0.73-0.195-1.513-0.284-2.261-0.232
						c-1.874,0.13-4.486,0.51-5.891,1.915c-0.156,0.156,0.194,0.236,0.29,0.209c1.496-0.413,2.961-0.644,4.514-0.577
						c1.017,0.044,2.313,0.042,3.193,0.635c0.214,0.144,0.447,0.131,0.661,0.03c-0.704,1.141-1.286,2.862-1.436,3.354
						c-0.38,1.246-0.576,2.854,0.024,4.062c0.097,0.195,0.632,0.107,0.579-0.135c-0.131-0.602,0.217-1.411,0.318-2.035
						c0.145-0.896,0.423-1.723,0.757-2.563c0.225-0.566,0.461-1.107,0.765-1.633c0.104-0.18,0.199-0.36,0.293-0.545
						c0.006-0.013,0.007-0.014,0.012-0.025c0.03-0.046,0.063-0.097,0.096-0.15c0.62,0.365,1.493,0.587,1.897,0.741
						c1.404,0.536,3.128,1.427,4.194,2.502c0.115,0.116,0.546,0.059,0.451-0.161c-0.716-1.667-2.096-2.715-3.56-3.7
						C344.758,234.548,342.554,233.003,341.904,234.391z"/>
				</g>
				<g id="XMLID_116_">
					<path id="XMLID_118_" style="fill:#27DEBF;" d="M343.799,232.999c0.583,1.007,0.24,2.296-0.767,2.879
						c-1.007,0.583-2.296,0.24-2.879-0.767c-0.583-1.007-0.24-2.296,0.767-2.879S343.216,231.992,343.799,232.999z"/>
					<path id="XMLID_117_" style="opacity:0.05;" d="M342.065,235.359c-1.19-0.039-1.999-1.192-1.98-2.231
						c-0.298,0.61-0.298,1.352,0.068,1.983c0.583,1.007,1.872,1.35,2.879,0.767c0.659-0.382,1.027-1.066,1.043-1.775
						C343.719,234.76,343.053,235.391,342.065,235.359z"/>
				</g>
			</g>
			<g id="XMLID_107_">
				<path id="XMLID_114_" style="fill:#F0F0F0;" d="M317.297,232.413c0,0,1.267-0.428,1.238-1.387
					c-0.029-0.959-1.51-1.356-1.51-1.356s0.466-0.838-0.468-1.991c-0.955-1.18-2.322-1.465-5.504-0.63
					c-0.331,0.087-0.615,0.193-0.877,0.306c0.611-0.467,1.133-0.99,1.577-1.604c0.877-1.213,2.682-3.81,1.374-5.503
					c-1.232-1.595-2.297-0.788-2.297-0.788s-0.015-1.338-0.936-1.607c-0.921-0.269-1.756,1.017-1.756,1.017s-0.653-0.702-2.038-0.17
					c-1.417,0.544-2.086,1.692-2.012,4.981c0.021,0.945,0.104,1.94,0.209,2.873c-0.594-1.46-1.237-2.998-1.557-3.621
					c-0.684-1.332-2.515-3.977-4.53-3.257c-1.898,0.678-1.46,1.941-1.46,1.941s-1.277-0.399-1.817,0.394
					c-0.54,0.793,0.424,1.984,0.424,1.984s-0.869,0.404-0.791,1.886c0.079,1.516,0.965,2.507,4.115,3.452
					c0.845,0.254,1.748,0.469,2.614,0.651c-1.552,0.113-3.175,0.246-3.857,0.357c-1.478,0.239-4.56,1.163-4.497,3.302
					c0.059,2.014,1.395,1.988,1.395,1.988s-0.774,1.091-0.187,1.85c0.587,0.759,2.018,0.21,2.018,0.21s0.116,0.951,1.549,1.335
					c1.466,0.393,2.682-0.143,4.555-2.847c0.558-0.806,1.096-1.696,1.573-2.541c-0.379,1.535-0.766,3.167-0.874,3.863
					c-0.23,1.48-0.303,4.696,1.751,5.298c1.934,0.567,2.322-0.712,2.322-0.712s0.799,1.073,1.702,0.749
					c0.903-0.324,0.823-1.855,0.823-1.855s0.941,0.184,1.749-1.06c0.827-1.273,0.875-2.85-1.119-5.467
					c-0.109-0.143-0.222-0.288-0.34-0.43c0.722,0.483,1.474,0.877,1.854,1.018c1.549,0.576,4.336,1.566,5.543-0.201
					C318.393,233.177,317.297,232.413,317.297,232.413z"/>
				<g id="XMLID_111_">
					<path id="XMLID_113_" style="fill:#E0E0E0;" d="M314.226,231.602c-0.981-1.042-3.289-1.596-4.638-1.793
						c-0.98-0.143-3.031-0.411-3.694,0.621c-0.073,0.115,0.022,0.289,0.117,0.36c0.959,0.722,2.518,0.287,3.67,0.329
						c1.521,0.056,2.832,0.627,4.313,0.891C314.252,232.056,314.415,231.802,314.226,231.602z"/>
					<path id="XMLID_112_" style="fill:#E0E0E0;" d="M304.89,230.514c-0.008,0.003-0.014,0.008-0.022,0.011
						c-0.049-0.011-0.097-0.025-0.151-0.03c0.132-0.073,0.24-0.169,0.313-0.282c0.15,0.094,0.34,0.13,0.488,0.06
						c2.705-1.286,3.619-6.046,3.114-8.676c-0.016-0.086-0.272-0.317-0.314-0.146c-0.398,1.605-0.835,3.156-1.56,4.669
						c-0.471,0.983-1.383,2.13-1.81,3.195c-0.068-0.157-0.144-0.31-0.233-0.467c-0.373-0.657-0.859-1.277-1.421-1.774
						c-1.407-1.245-3.51-2.839-5.498-2.855c-0.221-0.002-0.032,0.303,0.054,0.353c1.344,0.777,2.536,1.658,3.578,2.813
						c0.682,0.755,1.592,1.678,1.788,2.721c0.048,0.253,0.22,0.411,0.442,0.492c-1.307,0.299-2.941,1.091-3.397,1.329
						c-1.154,0.604-2.438,1.591-2.878,2.867c-0.071,0.205,0.367,0.525,0.502,0.318c0.337-0.516,1.158-0.835,1.674-1.201
						c0.74-0.525,1.525-0.908,2.357-1.258c0.561-0.236,1.112-0.448,1.701-0.601c0.202-0.052,0.396-0.111,0.594-0.173
						c0.014-0.004,0.015-0.005,0.026-0.009c0.054-0.011,0.113-0.023,0.174-0.036c0.175,0.698,0.629,1.475,0.803,1.872
						c0.603,1.377,1.177,3.23,1.159,4.744c-0.002,0.164,0.341,0.43,0.431,0.208c0.686-1.68,0.465-3.398,0.14-5.133
						C306.78,232.657,306.336,230.003,304.89,230.514z"/>
				</g>
				<g id="XMLID_108_">
					<path id="XMLID_110_" style="fill:#27DEBF;" d="M307.212,230.887c-0.309,1.122-1.468,1.782-2.59,1.473
						c-1.122-0.308-1.782-1.468-1.473-2.59c0.308-1.122,1.468-1.781,2.59-1.473C306.861,228.606,307.52,229.766,307.212,230.887z"/>
					<path id="XMLID_109_" style="opacity:0.05;" d="M304.313,231.307c-0.807-0.875-0.552-2.261,0.201-2.976
						c-0.644,0.215-1.172,0.736-1.366,1.44c-0.309,1.122,0.351,2.282,1.473,2.59c0.734,0.202,1.48-0.016,1.997-0.502
						C305.9,232.066,304.984,232.033,304.313,231.307z"/>
				</g>
			</g>
		</g>
	</g>
</g>
<g id="Character">
	<g id="Character_6_">
		<g>
			<path style="fill:#27DEBF;" d="M204.395,284.676c-11.591-2.602-35.935-6.813-35.935-6.813l3.313-16.083
				c-13.734,4.541-35.967,1.908-45.691-5.796l-1.863,7.188c0,0-8.047,9.312-11.381,14.485c-2.67,4.143-9.741,15.361-6.042,31.359
				c2.172,9.395,10.427,30.607,10.427,30.607l-16.952-7.684c0,0-3.978-0.153-7.624,5.466c-3.646,5.619-0.041,14.057-0.041,14.057
				s20.672,16.232,36.649,25.843c15.793,9.501,24.078,10.33,34.395,5.577c5.919-2.728,6.298-12.817,3.255-23.36
				c-3.043-10.543-14.805-43.928-14.805-43.928l26.979,1.991l-4.564,13.759l-3.959,16.905c0,0,3.229,9.058,17.653,6.001
				c0,0,23.226-38.216,26.236-48.571C217.454,295.325,215.613,287.194,204.395,284.676z"/>
			<path style="opacity:0.25;" d="M204.395,284.676c-11.591-2.602-35.935-6.813-35.935-6.813l3.313-16.083
				c-13.734,4.541-35.967,1.908-45.691-5.796l-1.863,7.188c0,0-8.047,9.312-11.381,14.485c-2.67,4.143-9.741,15.361-6.042,31.359
				c2.172,9.395,10.427,30.607,10.427,30.607l-16.952-7.684c0,0-3.978-0.153-7.624,5.466c-3.646,5.619-0.041,14.057-0.041,14.057
				s20.672,16.232,36.649,25.843c15.793,9.501,24.078,10.33,34.395,5.577c5.919-2.728,6.298-12.817,3.255-23.36
				c-3.043-10.543-14.805-43.928-14.805-43.928l26.979,1.991l-4.564,13.759l-3.959,16.905c0,0,3.229,9.058,17.653,6.001
				c0,0,23.226-38.216,26.236-48.571C217.454,295.325,215.613,287.194,204.395,284.676z"/>
			<path style="fill:#F28F8F;" d="M169.629,205.554c4.227,1.001,8.354,3.187,11.316,12.051c2.962,8.864,8.637,41.126,8.637,41.126
				l25.24,45.768l-10.441,5.937l-25.895-35.104c-3.152-4.273-5.312-9.195-6.321-14.408l-5.452-28.144L169.629,205.554"/>
			<path style="fill:#E0E0E0;" d="M169.136,205.247c0,0,4.965,0.53,8.313,4.557c3.347,4.027,4.491,9.603,5.881,15.075
				c1.39,5.473,3.145,14.146,3.145,14.146s-6.003,6.918-21.123,4.75c-0.354-0.516-2.42-32.732-2.42-32.732L169.136,205.247z"/>
			<path style="fill:#27DEBF;" d="M126.082,255.984c0,0,17.421,13.535,45.709,7.704c0,0-0.57,5.612-2.361,9.536
				c0,0-28.478,5.954-45.21-10.053C124.219,263.172,124.423,259.394,126.082,255.984z"/>
			<path style="opacity:0.35;" d="M126.082,255.984c0,0,17.421,13.535,45.709,7.704c0,0-0.57,5.612-2.361,9.536
				c0,0-28.478,5.954-45.21-10.053C124.219,263.172,124.423,259.394,126.082,255.984z"/>
			<g>
				<g>
					<path style="fill:#263238;" d="M213.031,386.055c-0.524,1.095-6.195,4.295-13.85,3.771c-7.664-0.515-12.924-3.594-15.844-5.531
						c-2.91-1.937-5.952-2.293-9.742-2.508c-2.218-0.131-4.847-0.833-6.803-1.741c0.44-0.683,0.796-1.46,1.076-2.302
						c0.393-1.151,0.655-2.433,0.786-3.818l44.582,8.413v0.009C213.676,383.266,213.545,384.969,213.031,386.055z"/>
					<path style="fill:#37474F;" d="M213.236,382.34v0.009c-0.374,0.945-1.039,1.778-2.031,2.358
						c-2.957,1.741-10.725,3.612-18.876,1.31c-4.436-1.263-9.367-6.008-15.198-6.457c-2.415-0.187-6.232-0.702-9.264-1.816
						c0.393-1.151,0.655-2.433,0.786-3.818c0.412-4.146-0.253-9.218-1.75-14.402c-0.056-0.206-0.122-0.412-0.187-0.636
						c0.215-0.786,0.421-1.516,0.608-2.19c1.188-4.408,3.481-19.615,4.96-24.771c1.422-4.922,2.976-3.434,3.126-3.285l-0.899,2.704
						c-0.066,4.127,16.012,11.37,21.28,10.125c0.43-0.739,0.87-1.497,1.32-2.265c1.628,1.441-2.714,6.953-6.073,13.27
						c-3.35,6.317-3.491,8.74-2.854,9.779c1.6,2.611,3.64,4.501,7.318,6.485c2.508,1.338,4.96,2.386,7.543,3.547
						c2.63,1.188,6.13,1.909,8.188,3.294C213.367,377.024,214.191,380.009,213.236,382.34z"/>
				</g>
			</g>
			<path style="opacity:0.15;" d="M152.098,315.594l-2.247-4.211c0,0,7.535-6.627,10.142-13.836c0,0-1.089,9.076-5.071,14.643
				l13.538,4.38L152.098,315.594z"/>
			<path style="opacity:0.15;" d="M118.21,352.705c-7.244-9.282-22.713-18.478-22.767-18.51c3.017-2.564,4.827-2.257,4.827-2.257
				l16.952,7.684c0,0,10.25,22.174,18.59,25.549C135.813,365.172,125.468,362.004,118.21,352.705z"/>
			<path style="opacity:0.15;" d="M179.077,317.585c0.001-1.939,3.992-10.177,11.126-13.086c0,0-10.11,1.759-14.537,12.834
				L179.077,317.585z"/>
			<g>
				<g>
					<path style="fill:#263238;" d="M88.357,371.874c-2.63,1.401-8.214,1.017-12.754-1.97c-4.54-2.986-5.614-9.732-3.972-14.645
						c1.988-5.952,5.495-8.857,6.799-12.421c1.304-3.564,1.248-8.785,2.91-11.883c1.58-2.945,5.347-4.938,7.451-5.443
						c1.724-0.414,3.543,0.053,4.925,1.165l1.314,1.057L88.357,371.874z"/>
				</g>
				<g>
					<path style="fill:#37474F;" d="M107.85,334.608c-2.909-1.259-5.878-1.899-11.654-6.267
						c-8.142-4.788-13.503,4.436-13.733,11.027c-0.229,6.591-7.207,10.765-8.66,17.441c-1.021,4.689-0.315,11.013,6.121,14.045
						c5.629,2.652,9.208,2.591,11.656-0.299c1.653-1.951,0.442-10.384,0.442-10.384l4.022-5.326c0,0,10.785,8.606,12.639,10.325
						c1.855,1.719,2.354,1.349,3.175,0.575l-1.516-1.139c0,0-6.096-14.418,6.88-24.984l-0.601-1.561
						C116.101,337.086,110.758,335.867,107.85,334.608z"/>
				</g>
			</g>
			<path style="fill:#263238;" d="M96.045,354.847c0,0-4.453-4.226-5.478-9.49c0,0-0.13,4.544,1.367,7.109
				c1.997,3.424,3.096,3.724,3.096,3.724L96.045,354.847z"/>
		</g>
		<g id="Character_7_">
			<g id="XMLID_331_">
				<g id="XMLID_2061_">
					
						<ellipse id="XMLID_1870_" transform="matrix(0.9317 -0.3632 0.3632 0.9317 -45.4168 65.1143)" style="fill:#37474F;" cx="150.443" cy="153.329" rx="24.567" ry="20.194"/>
					
						<ellipse id="XMLID_870_" transform="matrix(0.9142 -0.4053 0.4053 0.9142 -53.6985 77.2899)" style="fill:#455A64;" cx="155.69" cy="165.468" rx="43.543" ry="26.82"/>
				</g>
				<g id="XMLID_409_">
					<path id="XMLID_415_" style="fill:#E6E6E6;" d="M173.6,246.474c-0.021,2.287-1.797,11.728-1.827,15.306
						c-7.451,4.876-37.683,2.701-45.691-5.796l-2.449-18.35c0,0,13.126-14.764,4.705-36.414l13.484,0.474l19.681,1.722
						c4.66,0.812,6.926,1.822,6.926,1.822c2.676,3.163,7.238,9.007,10.808,17.964C181.265,228.291,183.748,235.686,173.6,246.474z"
						/>
				</g>
				<g>
					<path id="XMLID_431_" style="fill:#FFA8A7;" d="M129.024,201.845c-5.217-0.351-11.009,1.623-14.59,8.692
						c-5.09,10.05-13.346,54.901-11.355,59.276l19.417-9.392l5.107-26.363C133.643,225.486,134.33,205.676,129.024,201.845z"/>
					<path style="fill:#E0E0E0;" d="M130.216,201.176c0,0-7.702-0.737-11.368,2.479c-4.724,4.146-5.631,6.25-8.078,15.713
						c-2.284,8.834-3.373,14.235-3.373,14.235s2.008,3.041,8.903,5.172c6.896,2.131,11.304,0.991,11.304,0.991l1.602-6.163
						c0,0,4.184-11.001,4.438-20.529C133.897,203.546,130.216,201.176,130.216,201.176z"/>
				</g>
				<path style="fill:#27DEBF;" d="M149.851,228.621c0,0-1.091-18.776-10.919-27.029c0,0-3.125-1.19-7.233-0.372
					c8.137,6.944,10.465,17.292,11.664,27.924L149.851,228.621z"/>
				<path style="opacity:0.35;" d="M149.851,228.621c0,0-1.091-18.776-10.919-27.029c0,0-3.125-1.19-7.233-0.372
					c8.137,6.944,10.465,17.292,11.664,27.924L149.851,228.621z"/>
				<path style="fill:#27DEBF;" d="M180.805,229.865c0,0-0.516-15.048-11.176-24.311c0,0-4.414-3.015-8.522-2.197
					c6.425,3.548,12.904,14.997,13.599,26.445L180.805,229.865z"/>
				<path style="opacity:0.35;" d="M180.805,229.865c0,0-0.516-15.048-11.176-24.311c0,0-4.414-3.015-8.522-2.197
					c6.425,3.548,12.904,14.997,13.599,26.445L180.805,229.865z"/>
				<g>
					<path id="XMLID_408_" style="fill:#263238;" d="M158.96,192.33l-10.213-1.197c-13.316-1.56-22.347-14.757-19.154-27.226
						l0.586-3.267c7.203-10.868,23.366-19.401,29.923-22.238l0,0c16.137,1.891,27.685,16.505,25.795,32.641l0,0
						C184.336,184.36,172.277,193.89,158.96,192.33z"/>
					<g id="XMLID_395_">
						<path id="XMLID_402_" style="fill:#FFA8A7;" d="M177.394,153.329c2.872,2.185,5.777,10.395,3.494,26.623
							c-1.935,13.754-6.804,16.637-9.164,17.356c-2.36,0.719-6.618-0.385-10.745-1.58l-0.97,8.277c0,0,5.025,7.437,4.214,11.19
							c-0.81,3.753-8.949,3.708-13.957-0.637c-5.008-4.346-8.747-12.109-8.747-12.109l2.325-19.02c0,0-2.759,2.116-6.529-2.049
							c-3.112-3.438-3.681-8.686-0.658-11.113c3.023-2.426,7.929-1.094,9.386,3.041c0,0,6.683,1.032,16.197-2.831
							C171.754,166.613,176.173,158.606,177.394,153.329z"/>
					</g>
					<g id="XMLID_390_">
						<path id="XMLID_393_" style="fill:#263238;" d="M165.896,174.683c-0.066,0.999-0.9,1.756-1.862,1.689
							c-0.962-0.067-1.688-0.931-1.621-1.931c0.067-0.999,0.9-1.756,1.862-1.689C165.237,172.819,165.963,173.683,165.896,174.683z"
							/>
					</g>
					<g id="XMLID_386_" style="opacity:0.5;">
						<path id="XMLID_388_" style="fill:#F28F8F;" d="M164.99,186.428l3.878,1.757c-0.47,1.113-1.718,1.623-2.789,1.138
							C165.007,188.837,164.52,187.542,164.99,186.428z"/>
					</g>
					<g id="XMLID_375_">
						<path id="XMLID_381_" style="fill:#263238;" d="M180.74,171.023l-3.224-2.843c0.758-0.927,2.094-1.042,2.984-0.256
							C181.39,168.709,181.497,170.097,180.74,171.023z"/>
					</g>
					<g id="XMLID_353_">
						<path id="XMLID_354_" style="fill:#263238;" d="M179.454,175c-0.066,1-0.9,1.756-1.862,1.69
							c-0.962-0.067-1.688-0.932-1.621-1.931c0.066-1,0.9-1.756,1.861-1.689C178.794,173.136,179.521,174.001,179.454,175z"/>
					</g>
					<g id="XMLID_343_" style="opacity:0.5;">
						<polygon id="XMLID_352_" style="fill:#F28F8F;" points="171.388,173.048 170.441,183.521 176.135,182.462 						"/>
					</g>
					<g id="XMLID_340_" style="opacity:0.5;">
						<path id="XMLID_341_" style="fill:#F28F8F;" d="M160.979,195.728c-4.367-1.101-13.184-4.792-14.184-8.566
							c0,0,0.208,2.323,2.66,4.978c2.452,2.655,11.201,6.349,11.201,6.349L160.979,195.728z"/>
					</g>
				</g>
				<path id="XMLID_440_" style="fill:#455A64;" d="M177.516,146.858c-21.826-7.323-49.213,17.192-48.345,29.518
					c-4.862-5.353-1.168-22.387-1.168-22.387c5.279-5.906,24.157-17.433,37.779-17.454
					C171.756,138.822,175.719,142.234,177.516,146.858z"/>
			</g>
			<g>
				<g id="XMLID_442_">
					<g id="XMLID_521_">
						<g id="XMLID_537_">
							<path id="XMLID_540_" style="fill:#37474F;" d="M180.654,301.467l3.835-2.269c-0.027-0.047-3.051-5.302-3.555-13.119
								c-0.522-8.118,3.362-18.042,7.421-18.962c4.304-0.975,8.11,3.422,8.148,3.466l3.424-2.852
								c-0.223-0.269-5.553-6.548-12.556-4.96c-7.573,1.718-11.442,14.9-10.882,23.595
								C177.063,295.303,180.507,301.219,180.654,301.467z"/>
						</g>
						<g id="XMLID_524_">
							<path id="XMLID_536_" style="fill:#263238;" d="M181.655,291.212c1.061,4.897,2.813,7.95,2.834,7.986l-3.835,2.269
								c-0.067-0.114-0.828-1.43-1.688-3.672C179.717,295.952,180.647,293.673,181.655,291.212z"/>
							<path id="XMLID_525_" style="fill:#263238;" d="M195.213,263.992c2.802,1.488,4.586,3.586,4.713,3.738l-3.424,2.852
								c-0.027-0.031-1.938-2.228-4.573-3.176C193.002,265.825,194.221,264.718,195.213,263.992z"/>
						</g>
					</g>
					<path id="XMLID_520_" style="fill:#37474F;" d="M179.663,303.931l-0.025-0.008l14.662-34.341
						c0.011-0.005,0.021-0.01,0.032-0.015c1.168-2.735,4.024-4.895,8.435-5.892c9.558-2.168,22.708,1.909,29.374,9.107
						c3.068,3.317,4.199,6.713,3.614,9.629c0.006,0.01,0.012,0.019,0.017,0.029l-7.337,36.611l-0.025-0.008
						c-0.788,4.032-4.368,7.286-10.456,8.667c-11.256,2.552-26.735-2.247-34.573-10.719
						C179.142,312.411,178.031,307.702,179.663,303.931z"/>
					<path id="XMLID_519_" style="opacity:0.1;" d="M201.726,279.668c5.04,5.446,14.977,8.527,22.214,6.888
						c7.223-1.632,9.005-7.377,3.975-12.82c-5.044-5.435-14.98-8.516-22.214-6.887C198.475,268.491,196.694,274.236,201.726,279.668
						z"/>
					<path id="XMLID_504_" style="opacity:0.2;" d="M215.582,325.855c-3.532-4.285-3.177-10.803-0.324-14.382
						c0,0-4.13,3.848-3.343,8.452C212.731,324.702,215.582,325.855,215.582,325.855z"/>
					<path id="XMLID_489_" style="fill:#455A64;" d="M197.508,280.634c6.656,7.195,19.805,11.272,29.374,9.108
						c9.558-2.168,11.913-9.764,5.258-16.958c-6.666-7.198-19.816-11.275-29.374-9.107
						C193.198,265.84,190.842,273.436,197.508,280.634z M205.701,266.848c7.234-1.629,17.17,1.452,22.214,6.887
						c5.03,5.443,3.248,11.188-3.975,12.82c-7.237,1.639-17.174-1.441-22.214-6.888
						C196.694,274.236,198.475,268.491,205.701,266.848z"/>
					<g id="XMLID_446_">
						<path id="XMLID_487_" style="fill:#455A64;" d="M218.454,308.984c0,0,2.31-1.278,12.103-1.352
							c2.993-0.023,7.514,0.203,9.296,0.005c1.782-0.198,2.672-2.213,4.402-3.642c1.73-1.428,4.337-2.201,5.864-2.174l0.753,19.785
							c0,0-2.71,0.448-6.351-1.642c-3.377-1.939-4.631-2.745-6.082-2.313c-1.531,0.554-3.091,1.27-4.487,2.208
							c-4.385,2.947-10.493,6.604-15.998,7.852C211.576,324.519,210.875,312.495,218.454,308.984z"/>
						<path id="XMLID_475_" style="fill:#37474F;" d="M245.617,318.603c-2.651-3.936-2.513-10.219,0.309-14.034
							c2.822-3.815,7.258-3.717,9.909,0.218c2.651,3.936,2.513,10.219-0.309,14.034
							C252.705,322.637,248.268,322.539,245.617,318.603z"/>
						<path id="XMLID_470_" style="opacity:0.1;" d="M213.148,316.399c-0.723,4.476,1.041,9.431,4.808,11.31
							c5.505-1.243,11.607-4.902,15.995-7.845c1.4-0.942,2.953-1.662,4.488-2.212c1.453-0.436,2.706,0.373,6.08,2.317
							c3.306,1.9,5.852,1.698,6.288,1.647c-1.901,0.075-3.793-0.931-5.19-3.009c-0.935-1.386-1.531-3.075-1.776-4.842
							c-1.445,0.298-2.62,0.249-3.659,0.254c-3.379-0.01-6.534,2.231-10.811,4.403c-4.266,2.176-8.961,4.755-12.561,3.464
							C213.535,320.717,213.107,318.263,213.148,316.399z"/>
						<g id="XMLID_447_">
							<path id="XMLID_465_" style="fill:#263238;" d="M250.12,306.546c-0.376-0.559-0.357-1.451,0.044-1.992
								c0.4-0.542,1.03-0.528,1.407,0.031c0.376,0.559,0.357,1.451-0.044,1.992C251.126,307.118,250.497,307.104,250.12,306.546z"/>
							<path id="XMLID_464_" style="fill:#263238;" d="M250.093,310.649c-0.376-0.559-0.357-1.45,0.044-1.992
								c0.4-0.542,1.03-0.528,1.407,0.031c0.376,0.558,0.357,1.45-0.044,1.992C251.099,311.221,250.469,311.207,250.093,310.649z"/>
							<path id="XMLID_460_" style="fill:#263238;" d="M250.065,314.752c-0.376-0.558-0.357-1.45,0.044-1.992
								c0.4-0.542,1.03-0.528,1.406,0.031c0.376,0.559,0.357,1.451-0.044,1.992C251.071,315.324,250.441,315.31,250.065,314.752z"/>
							<path id="XMLID_455_" style="fill:#263238;" d="M250.037,318.855c-0.376-0.559-0.357-1.451,0.044-1.992
								c0.401-0.542,1.03-0.528,1.406,0.031c0.376,0.559,0.357,1.451-0.044,1.992C251.043,319.427,250.414,319.413,250.037,318.855z
								"/>
							<path id="XMLID_454_" style="fill:#263238;" d="M246.966,308.462c-0.376-0.559-0.357-1.451,0.044-1.992
								c0.401-0.541,1.03-0.528,1.407,0.031c0.376,0.559,0.357,1.45-0.044,1.992C247.972,309.034,247.343,309.02,246.966,308.462z"
								/>
							<path id="XMLID_453_" style="fill:#263238;" d="M253.194,308.674c-0.376-0.559-0.357-1.451,0.044-1.992
								c0.401-0.542,1.03-0.528,1.407,0.031c0.376,0.559,0.357,1.451-0.044,1.992C254.2,309.246,253.57,309.233,253.194,308.674z"/>
							<path id="XMLID_451_" style="fill:#263238;" d="M247.025,312.613c-0.376-0.559-0.357-1.451,0.044-1.992
								c0.401-0.541,1.03-0.528,1.407,0.031c0.376,0.559,0.357,1.451-0.044,1.992C248.031,313.185,247.402,313.172,247.025,312.613z
								"/>
							<path id="XMLID_450_" style="fill:#263238;" d="M253.253,312.825c-0.376-0.559-0.357-1.451,0.044-1.992
								c0.4-0.542,1.03-0.528,1.406,0.031c0.376,0.559,0.357,1.45-0.044,1.992C254.259,313.397,253.629,313.384,253.253,312.825z"/>
							<path id="XMLID_449_" style="fill:#263238;" d="M247.085,316.764c-0.376-0.559-0.357-1.45,0.044-1.992
								c0.4-0.542,1.03-0.528,1.407,0.031c0.376,0.559,0.357,1.451-0.044,1.992C248.091,317.336,247.461,317.323,247.085,316.764z"
								/>
							<path id="XMLID_448_" style="fill:#263238;" d="M253.312,316.976c-0.376-0.559-0.357-1.451,0.044-1.992
								c0.4-0.542,1.03-0.528,1.407,0.031c0.376,0.559,0.357,1.45-0.044,1.992C254.318,317.549,253.688,317.535,253.312,316.976z"/>
						</g>
					</g>
				</g>
				<g>
					<path id="XMLID_2710_" style="fill:#27DEBF;" d="M254.202,312.51c0.025,0.004,0.05,0.007,0.076,0.007
						c0.608,0.019,1.194,0.079,1.776,0.176c0.293,0.025,0.663-0.171,0.72-0.511c0.058-0.339-0.171-0.663-0.511-0.72
						c-0.632-0.102-1.282-0.171-1.946-0.192c-0.345-0.012-0.633,0.259-0.643,0.604C253.663,312.193,253.894,312.464,254.202,312.51z
						"/>
					<path id="XMLID_2703_" style="fill:#27DEBF;" d="M271.15,367.671l-0.299-3.815c-0.027-0.343,0.23-0.644,0.575-0.672
						c0.345-0.024,0.644,0.232,0.671,0.574l0.299,3.815c0.027,0.343-0.23,0.644-0.574,0.672c-0.049,0.004-0.096,0.001-0.142-0.005
						C271.399,368.197,271.174,367.967,271.15,367.671z M270.355,357.498l-0.297-3.813c-0.027-0.344,0.231-0.645,0.574-0.672
						c0.342-0.027,0.645,0.232,0.672,0.575l0.297,3.813c0.027,0.345-0.231,0.645-0.574,0.672c-0.049,0.004-0.096,0.001-0.142-0.005
						C270.603,358.024,270.378,357.793,270.355,357.498z M269.564,347.329l-0.295-3.814c-0.026-0.345,0.231-0.645,0.574-0.672
						c0.342-0.025,0.645,0.232,0.672,0.574l0.295,3.814c0.027,0.345-0.231,0.645-0.574,0.672c-0.049,0.004-0.096,0.001-0.142-0.006
						C269.813,347.855,269.587,347.624,269.564,347.329z M268.781,337.155l-0.184-2.405c-0.035-0.475-0.076-0.939-0.12-1.394
						c-0.034-0.343,0.217-0.649,0.56-0.682c0.35-0.036,0.651,0.217,0.682,0.56c0.046,0.465,0.087,0.939,0.123,1.423l0.184,2.404
						c0.027,0.343-0.231,0.643-0.576,0.67c-0.047,0.004-0.095,0.002-0.141-0.005C269.03,337.682,268.804,337.451,268.781,337.155z
						 M267.529,327.134c-0.282-1.285-0.613-2.505-0.983-3.625c-0.109-0.327,0.069-0.68,0.396-0.789
						c0.324-0.107,0.681,0.068,0.789,0.396c0.385,1.16,0.728,2.423,1.019,3.751c0.073,0.337-0.14,0.669-0.477,0.743
						c-0.077,0.017-0.153,0.019-0.227,0.008C267.797,327.581,267.586,327.394,267.529,327.134z M263.881,317.938
						c-0.727-1.062-1.542-1.979-2.42-2.726c-0.263-0.223-0.295-0.617-0.071-0.879c0.224-0.265,0.62-0.293,0.879-0.071
						c0.964,0.819,1.852,1.818,2.642,2.972c0.195,0.284,0.122,0.673-0.163,0.867c-0.135,0.093-0.295,0.125-0.446,0.103
						C264.137,318.178,263.983,318.086,263.881,317.938z"/>
					<path id="XMLID_2702_" style="fill:#27DEBF;" d="M272.327,376.463c0.046,0.007,0.094,0.009,0.142,0.006
						c0.345-0.028,0.601-0.328,0.574-0.672l-0.147-1.862c-0.029-0.345-0.329-0.601-0.672-0.574
						c-0.345,0.028-0.601,0.328-0.574,0.671l0.147,1.862C271.821,376.19,272.046,376.421,272.327,376.463z"/>
					<path id="XMLID_2701_" style="fill:#27DEBF;" d="M247.324,312.296c0.025,0.004,0.05,0.006,0.075,0.007
						c0.608,0.018,1.192,0.081,1.775,0.176c0.364,0.018,0.662-0.171,0.72-0.511c0.058-0.339-0.171-0.663-0.511-0.72
						c-0.621-0.105-1.28-0.172-1.945-0.192c-0.345-0.012-0.633,0.259-0.643,0.604C246.785,311.978,247.016,312.249,247.324,312.296z
						"/>
					<path id="XMLID_2680_" style="fill:#27DEBF;" d="M264.271,367.457l-0.299-3.815c-0.027-0.343,0.23-0.644,0.574-0.672
						c0.351-0.027,0.645,0.232,0.672,0.575l0.299,3.815c0.027,0.344-0.23,0.644-0.575,0.672c-0.049,0.004-0.096,0.001-0.142-0.006
						C264.52,367.983,264.295,367.753,264.271,367.457z M263.475,357.283l-0.296-3.813c-0.027-0.345,0.231-0.645,0.574-0.671
						c0.347-0.024,0.645,0.232,0.672,0.574l0.296,3.813c0.027,0.345-0.231,0.645-0.575,0.672c-0.048,0.004-0.096,0.001-0.142-0.006
						C263.723,357.809,263.498,357.578,263.475,357.283z M262.686,347.114l-0.295-3.814c-0.027-0.345,0.231-0.645,0.575-0.672
						c0.346-0.027,0.645,0.232,0.671,0.574l0.295,3.814c0.027,0.345-0.231,0.645-0.575,0.672c-0.049,0.004-0.096,0.001-0.142-0.006
						C262.935,347.641,262.71,347.409,262.686,347.114z M261.904,336.94l-0.184-2.405c-0.035-0.474-0.076-0.938-0.121-1.393
						c-0.034-0.343,0.217-0.649,0.56-0.682c0.346-0.039,0.649,0.217,0.682,0.56c0.045,0.465,0.087,0.938,0.124,1.421l0.184,2.404
						c0.027,0.343-0.231,0.644-0.576,0.67c-0.048,0.004-0.095,0.002-0.141-0.005C262.152,337.468,261.927,337.236,261.904,336.94z
						 M260.651,326.919c-0.282-1.285-0.613-2.505-0.983-3.625c-0.109-0.328,0.069-0.681,0.396-0.789
						c0.322-0.109,0.679,0.066,0.789,0.396c0.385,1.16,0.728,2.423,1.018,3.751c0.073,0.337-0.14,0.67-0.477,0.743
						c-0.077,0.017-0.153,0.019-0.227,0.008C260.919,327.366,260.708,327.18,260.651,326.919z M257.003,317.723
						c-0.727-1.062-1.542-1.979-2.42-2.726c-0.264-0.223-0.295-0.617-0.071-0.88c0.224-0.263,0.621-0.294,0.879-0.071
						c0.964,0.819,1.852,1.818,2.642,2.972c0.195,0.284,0.123,0.672-0.162,0.867c-0.135,0.093-0.295,0.125-0.446,0.103
						C257.259,317.963,257.105,317.872,257.003,317.723z"/>
					<path id="XMLID_2679_" style="fill:#27DEBF;" d="M265.449,376.249c0.046,0.007,0.094,0.009,0.143,0.006
						c0.344-0.028,0.6-0.328,0.573-0.673l-0.147-1.861c-0.028-0.345-0.326-0.598-0.671-0.574c-0.345,0.028-0.602,0.328-0.575,0.672
						l0.147,1.863C264.944,375.976,265.168,376.206,265.449,376.249z"/>
					<path id="XMLID_2678_" style="fill:#27DEBF;" d="M249.412,317.162c0.233,0.035,0.475-0.063,0.614-0.272
						c0.191-0.287,0.113-0.675-0.175-0.866c-1.087-0.724-1.87-0.843-1.958-0.86c-0.342-0.046-0.656,0.194-0.702,0.536
						c-0.045,0.339,0.189,0.649,0.525,0.7c0.015,0.018,0.572,0.086,1.444,0.663C249.238,317.117,249.324,317.148,249.412,317.162z"
						/>
					<path id="XMLID_2671_" style="fill:#27DEBF;" d="M258.912,370.146l-0.271-3.466c-0.027-0.343,0.23-0.644,0.574-0.672
						c0.345-0.025,0.644,0.23,0.672,0.575l0.271,3.466c0.027,0.343-0.231,0.645-0.575,0.671c-0.049,0.004-0.096,0.001-0.142-0.005
						C259.16,370.672,258.935,370.441,258.912,370.146z M258.189,360.904l-0.27-3.465c-0.027-0.344,0.231-0.645,0.574-0.672
						c0.349-0.026,0.645,0.231,0.671,0.575l0.27,3.465c0.027,0.343-0.231,0.645-0.575,0.672c-0.049,0.004-0.096,0.001-0.142-0.005
						C258.437,361.43,258.212,361.198,258.189,360.904z M257.47,351.664l-0.269-3.465c-0.027-0.345,0.231-0.645,0.574-0.672
						c0.348-0.024,0.645,0.232,0.672,0.574l0.269,3.465c0.027,0.345-0.231,0.645-0.574,0.672c-0.049,0.004-0.096,0.001-0.142-0.005
						C257.719,352.19,257.493,351.958,257.47,351.664z M256.758,342.424l-0.266-3.467c-0.027-0.343,0.231-0.644,0.576-0.67
						c0.34-0.026,0.643,0.232,0.67,0.576l0.266,3.464c0.027,0.345-0.231,0.645-0.574,0.672c-0.049,0.004-0.096,0.001-0.142-0.005
						C257.006,342.951,256.781,342.719,256.758,342.424z M255.971,333.223c-0.148-1.179-0.326-2.321-0.531-3.395
						c-0.064-0.339,0.158-0.666,0.497-0.73c0.34-0.067,0.666,0.158,0.73,0.497c0.21,1.099,0.391,2.267,0.544,3.47
						c0.043,0.343-0.2,0.656-0.542,0.699c-0.059,0.007-0.117,0.006-0.172-0.003C256.227,333.721,256.007,333.506,255.971,333.223z
						 M253.989,324.33c-0.403-1.133-0.858-2.176-1.35-3.097c-0.162-0.303-0.048-0.682,0.257-0.844
						c0.302-0.163,0.682-0.048,0.844,0.257c0.522,0.975,1.002,2.074,1.425,3.266c0.116,0.325-0.054,0.681-0.379,0.798
						c-0.101,0.036-0.204,0.044-0.303,0.029C254.264,324.705,254.069,324.554,253.989,324.33z"/>
					<path id="XMLID_2670_" style="fill:#27DEBF;" d="M260.043,378.356c0.046,0.007,0.094,0.009,0.143,0.006
						c0.344-0.028,0.6-0.328,0.574-0.673l-0.147-1.861c-0.028-0.345-0.327-0.601-0.672-0.574c-0.345,0.028-0.601,0.328-0.575,0.672
						l0.147,1.863C259.538,378.083,259.762,378.313,260.043,378.356z"/>
				</g>
				<g style="opacity:0.8;">
					<path id="XMLID_430_" style="fill:#FFFFFF;" d="M254.202,312.51c0.025,0.004,0.05,0.007,0.076,0.007
						c0.608,0.019,1.194,0.079,1.776,0.176c0.293,0.025,0.663-0.171,0.72-0.511c0.058-0.339-0.171-0.663-0.511-0.72
						c-0.632-0.102-1.282-0.171-1.946-0.192c-0.345-0.012-0.633,0.259-0.643,0.604C253.663,312.193,253.894,312.464,254.202,312.51z
						"/>
					<path id="XMLID_342_" style="fill:#FFFFFF;" d="M271.15,367.671l-0.299-3.815c-0.027-0.343,0.23-0.644,0.575-0.672
						c0.345-0.024,0.644,0.232,0.671,0.574l0.299,3.815c0.027,0.343-0.23,0.644-0.574,0.672c-0.049,0.004-0.096,0.001-0.142-0.005
						C271.399,368.197,271.174,367.967,271.15,367.671z M270.355,357.498l-0.297-3.813c-0.027-0.344,0.231-0.645,0.574-0.672
						c0.342-0.027,0.645,0.232,0.672,0.575l0.297,3.813c0.027,0.345-0.231,0.645-0.574,0.672c-0.049,0.004-0.096,0.001-0.142-0.005
						C270.603,358.024,270.378,357.793,270.355,357.498z M269.564,347.329l-0.295-3.814c-0.026-0.345,0.231-0.645,0.574-0.672
						c0.342-0.025,0.645,0.232,0.672,0.574l0.295,3.814c0.027,0.345-0.231,0.645-0.574,0.672c-0.049,0.004-0.096,0.001-0.142-0.006
						C269.813,347.855,269.587,347.624,269.564,347.329z M268.781,337.155l-0.184-2.405c-0.035-0.475-0.076-0.939-0.12-1.394
						c-0.034-0.343,0.217-0.649,0.56-0.682c0.35-0.036,0.651,0.217,0.682,0.56c0.046,0.465,0.087,0.939,0.123,1.423l0.184,2.404
						c0.027,0.343-0.231,0.643-0.576,0.67c-0.047,0.004-0.095,0.002-0.141-0.005C269.03,337.682,268.804,337.451,268.781,337.155z
						 M267.529,327.134c-0.282-1.285-0.613-2.505-0.983-3.625c-0.109-0.327,0.069-0.68,0.396-0.789
						c0.324-0.107,0.681,0.068,0.789,0.396c0.385,1.16,0.728,2.423,1.019,3.751c0.073,0.337-0.14,0.669-0.477,0.743
						c-0.077,0.017-0.153,0.019-0.227,0.008C267.797,327.581,267.586,327.394,267.529,327.134z M263.881,317.938
						c-0.727-1.062-1.542-1.979-2.42-2.726c-0.263-0.223-0.295-0.617-0.071-0.879c0.224-0.265,0.62-0.293,0.879-0.071
						c0.964,0.819,1.852,1.818,2.642,2.972c0.195,0.284,0.122,0.673-0.163,0.867c-0.135,0.093-0.295,0.125-0.446,0.103
						C264.137,318.178,263.983,318.086,263.881,317.938z"/>
					<path id="XMLID_329_" style="fill:#FFFFFF;" d="M272.327,376.463c0.046,0.007,0.094,0.009,0.142,0.006
						c0.345-0.028,0.601-0.328,0.574-0.672l-0.147-1.862c-0.029-0.345-0.329-0.601-0.672-0.574
						c-0.345,0.028-0.601,0.328-0.574,0.671l0.147,1.862C271.821,376.19,272.046,376.421,272.327,376.463z"/>
					<path id="XMLID_324_" style="fill:#FFFFFF;" d="M247.324,312.296c0.025,0.004,0.05,0.006,0.075,0.007
						c0.608,0.018,1.192,0.081,1.775,0.176c0.364,0.018,0.662-0.171,0.72-0.511c0.058-0.339-0.171-0.663-0.511-0.72
						c-0.621-0.105-1.28-0.172-1.945-0.192c-0.345-0.012-0.633,0.259-0.643,0.604C246.785,311.978,247.016,312.249,247.324,312.296z
						"/>
					<path id="XMLID_316_" style="fill:#FFFFFF;" d="M264.271,367.457l-0.299-3.815c-0.027-0.343,0.23-0.644,0.574-0.672
						c0.351-0.027,0.645,0.232,0.672,0.575l0.299,3.815c0.027,0.344-0.23,0.644-0.575,0.672c-0.049,0.004-0.096,0.001-0.142-0.006
						C264.52,367.983,264.295,367.753,264.271,367.457z M263.475,357.283l-0.296-3.813c-0.027-0.345,0.231-0.645,0.574-0.671
						c0.347-0.024,0.645,0.232,0.672,0.574l0.296,3.813c0.027,0.345-0.231,0.645-0.575,0.672c-0.048,0.004-0.096,0.001-0.142-0.006
						C263.723,357.809,263.498,357.578,263.475,357.283z M262.686,347.114l-0.295-3.814c-0.027-0.345,0.231-0.645,0.575-0.672
						c0.346-0.027,0.645,0.232,0.671,0.574l0.295,3.814c0.027,0.345-0.231,0.645-0.575,0.672c-0.049,0.004-0.096,0.001-0.142-0.006
						C262.935,347.641,262.71,347.409,262.686,347.114z M261.904,336.94l-0.184-2.405c-0.035-0.474-0.076-0.938-0.121-1.393
						c-0.034-0.343,0.217-0.649,0.56-0.682c0.346-0.039,0.649,0.217,0.682,0.56c0.045,0.465,0.087,0.938,0.124,1.421l0.184,2.404
						c0.027,0.343-0.231,0.644-0.576,0.67c-0.048,0.004-0.095,0.002-0.141-0.005C262.152,337.468,261.927,337.236,261.904,336.94z
						 M260.651,326.919c-0.282-1.285-0.613-2.505-0.983-3.625c-0.109-0.328,0.069-0.681,0.396-0.789
						c0.322-0.109,0.679,0.066,0.789,0.396c0.385,1.16,0.728,2.423,1.018,3.751c0.073,0.337-0.14,0.67-0.477,0.743
						c-0.077,0.017-0.153,0.019-0.227,0.008C260.919,327.366,260.708,327.18,260.651,326.919z M257.003,317.723
						c-0.727-1.062-1.542-1.979-2.42-2.726c-0.264-0.223-0.295-0.617-0.071-0.88c0.224-0.263,0.621-0.294,0.879-0.071
						c0.964,0.819,1.852,1.818,2.642,2.972c0.195,0.284,0.123,0.672-0.162,0.867c-0.135,0.093-0.295,0.125-0.446,0.103
						C257.259,317.963,257.105,317.872,257.003,317.723z"/>
					<path id="XMLID_312_" style="fill:#FFFFFF;" d="M265.449,376.249c0.046,0.007,0.094,0.009,0.143,0.006
						c0.344-0.028,0.6-0.328,0.573-0.673l-0.147-1.861c-0.028-0.345-0.326-0.598-0.671-0.574c-0.345,0.028-0.602,0.328-0.575,0.672
						l0.147,1.863C264.944,375.976,265.168,376.206,265.449,376.249z"/>
					<path id="XMLID_311_" style="fill:#FFFFFF;" d="M249.412,317.162c0.233,0.035,0.475-0.063,0.614-0.272
						c0.191-0.287,0.113-0.675-0.175-0.866c-1.087-0.724-1.87-0.843-1.958-0.86c-0.342-0.046-0.656,0.194-0.702,0.536
						c-0.045,0.339,0.189,0.649,0.525,0.7c0.015,0.018,0.572,0.086,1.444,0.663C249.238,317.117,249.324,317.148,249.412,317.162z"
						/>
					<path id="XMLID_289_" style="fill:#FFFFFF;" d="M258.912,370.146l-0.271-3.466c-0.027-0.343,0.23-0.644,0.574-0.672
						c0.345-0.025,0.644,0.23,0.672,0.575l0.271,3.466c0.027,0.343-0.231,0.645-0.575,0.671c-0.049,0.004-0.096,0.001-0.142-0.005
						C259.16,370.672,258.935,370.441,258.912,370.146z M258.189,360.904l-0.27-3.465c-0.027-0.344,0.231-0.645,0.574-0.672
						c0.349-0.026,0.645,0.231,0.671,0.575l0.27,3.465c0.027,0.343-0.231,0.645-0.575,0.672c-0.049,0.004-0.096,0.001-0.142-0.005
						C258.437,361.43,258.212,361.198,258.189,360.904z M257.47,351.664l-0.269-3.465c-0.027-0.345,0.231-0.645,0.574-0.672
						c0.348-0.024,0.645,0.232,0.672,0.574l0.269,3.465c0.027,0.345-0.231,0.645-0.574,0.672c-0.049,0.004-0.096,0.001-0.142-0.005
						C257.719,352.19,257.493,351.958,257.47,351.664z M256.758,342.424l-0.266-3.467c-0.027-0.343,0.231-0.644,0.576-0.67
						c0.34-0.026,0.643,0.232,0.67,0.576l0.266,3.464c0.027,0.345-0.231,0.645-0.574,0.672c-0.049,0.004-0.096,0.001-0.142-0.005
						C257.006,342.951,256.781,342.719,256.758,342.424z M255.971,333.223c-0.148-1.179-0.326-2.321-0.531-3.395
						c-0.064-0.339,0.158-0.666,0.497-0.73c0.34-0.067,0.666,0.158,0.73,0.497c0.21,1.099,0.391,2.267,0.544,3.47
						c0.043,0.343-0.2,0.656-0.542,0.699c-0.059,0.007-0.117,0.006-0.172-0.003C256.227,333.721,256.007,333.506,255.971,333.223z
						 M253.989,324.33c-0.403-1.133-0.858-2.176-1.35-3.097c-0.162-0.303-0.048-0.682,0.257-0.844
						c0.302-0.163,0.682-0.048,0.844,0.257c0.522,0.975,1.002,2.074,1.425,3.266c0.116,0.325-0.054,0.681-0.379,0.798
						c-0.101,0.036-0.204,0.044-0.303,0.029C254.264,324.705,254.069,324.554,253.989,324.33z"/>
					<path id="XMLID_288_" style="fill:#FFFFFF;" d="M260.043,378.356c0.046,0.007,0.094,0.009,0.143,0.006
						c0.344-0.028,0.6-0.328,0.574-0.673l-0.147-1.861c-0.028-0.345-0.327-0.601-0.672-0.574c-0.345,0.028-0.601,0.328-0.575,0.672
						l0.147,1.863C259.538,378.083,259.762,378.313,260.043,378.356z"/>
				</g>
			</g>
			<path id="XMLID_330_" style="fill:#FFA8A7;" d="M122.688,258.594c0,0,29.639,11.354,36.095,13.085
				c5.414,1.451,9.649,1.935,14.107-0.417c4.403-2.322,7.238-1.988,7.238-1.988c-0.398,0.827-1.974,4.327-2.527,7.206
				c1.411,2.273,4.18,1.041,4.18,1.041c0.336-1.207,0.599-2.506,1.221-3.816c4.293,2.381,6.365,4.832,5.106,7.691
				c-0.975,2.214-3.466,10.343-10.881,10.441c-6.034,0.079-16.358-5.115-23.461-8.172c-7.103-3.057-49.453-7.415-50.687-13.85
				c0,0,1.291-7.509,7.783-10.049C116.865,257.415,122.688,258.594,122.688,258.594z"/>
		</g>
		<path style="fill:#27DEBF;" d="M133.643,260.485c0,0,4.431-11.75,5.384-21.857c0.953-10.106,1.235-11.441,14.347-11.632
			c13.112-0.191,23.814-1.475,26.948-0.737c3.134,0.737,1.57,12.534-2.701,21.986c-4.271,9.452-5.831,15.443-5.831,15.443
			S151.713,269.757,133.643,260.485z"/>
		<path style="opacity:0.25;" d="M133.643,260.485c0,0,4.431-11.75,5.384-21.857c0.953-10.106,1.235-11.441,14.347-11.632
			c13.112-0.191,23.814-1.475,26.948-0.737c3.134,0.737,1.57,12.534-2.701,21.986c-4.271,9.452-5.831,15.443-5.831,15.443
			S151.713,269.757,133.643,260.485z"/>
		<path style="fill:#27DEBF;" d="M149.851,234.493l26.921-0.89c0,0-0.949,12.755-3.876,14.872
			c-2.926,2.117-20.598,2.309-23.786,0.907C145.328,247.719,149.851,234.493,149.851,234.493z"/>
		<path style="fill:#263238;" d="M144.145,231.637c3.706-1.237,7.511-4.108,8.894-7.845c0.355-0.959,0.688-1.929,0.895-2.93
			c0.635-3.064,0.134-6.417-0.833-9.355c-0.889-2.698-1.805-5.153-3.517-7.468c-1.441-1.949-3.072-3.758-4.438-5.761
			c-0.677-0.992-1.098-1.779-1.583-2.809c-0.889-1.889-0.328-7.051-0.328-7.051c0.017-0.429-0.178-1.338-0.449-1.671
			c-1.222-1.5-2.953-2.192-4.275-2.487c-1.523-0.34-2.596,0.341-3.633,1.363c-2.624,2.585-4.737,5.332-6.093,8.824
			c-1.101,2.834-1.418,6.02-0.58,8.943c0.535,1.865,1.232,3.265,2.296,4.85c2.685,4.002,3.853,8.737,1.861,13.305
			c-0.489,1.122-1.115,2.185-1.526,3.337s-0.596,2.443-0.179,3.593c0.607,1.676,2.332,2.676,4.028,3.225
			C137.735,232.689,141.102,232.652,144.145,231.637z"/>
	</g>
</g>
</svg>
